<?xml version="1.0" encoding="UTF-8"?>
<svg version="1.1" xmlns="http://www.w3.org/2000/svg" width="469" height="128">
<path d="M0 0 C1.16831187 -0.00260775 2.33662374 -0.00521549 3.54033899 -0.00790226 C4.84021171 -0.00567154 6.14008443 -0.00344082 7.47934723 -0.0011425 C8.86130613 -0.00229337 10.24326473 -0.00388065 11.62522268 -0.00586975 C15.44056817 -0.01006786 19.25588885 -0.00797022 23.07123446 -0.00488353 C27.17897894 -0.0026316 31.28671898 -0.006108 35.39446259 -0.00886345 C43.44857311 -0.01332237 51.50267433 -0.01234414 59.55678523 -0.00945081 C66.09947004 -0.00719725 72.64215225 -0.00688405 79.18483734 -0.00797462 C80.57882005 -0.00820447 80.57882005 -0.00820447 82.00096402 -0.00843897 C83.88855175 -0.00875868 85.77613949 -0.00908289 87.66372722 -0.00941156 C105.38558487 -0.01226671 123.10743735 -0.00897878 140.82929415 -0.00361119 C156.05285772 0.00085688 171.27641367 0.00008096 186.49997711 -0.00452995 C204.15614208 -0.0098751 221.81230252 -0.01199201 239.46846819 -0.00891769 C241.34931723 -0.00859912 243.23016628 -0.00828475 245.11101532 -0.00797462 C246.03655656 -0.00782035 246.9620978 -0.00766607 247.91568574 -0.00750712 C254.45450072 -0.00664179 260.99331284 -0.0081052 267.53212738 -0.01045418 C275.49502799 -0.01325172 283.45791874 -0.01251489 291.42081821 -0.00717343 C295.4876897 -0.00453579 299.55454471 -0.0035324 303.62141609 -0.00682259 C307.3383229 -0.00978428 311.05519782 -0.00819489 314.7721017 -0.00284503 C316.76657238 -0.00118408 318.76104524 -0.00447954 320.75551367 -0.00790226 C322.50798147 -0.00399064 322.50798147 -0.00399064 324.29585266 0 C325.8209457 0.00024353 325.8209457 0.00024353 327.3768487 0.00049198 C329.64792633 0.12584114 329.64792633 0.12584114 330.64792633 1.12584114 C330.74764419 3.04042396 330.77873222 4.95866431 330.78073883 6.87584114 C330.78202789 8.04115364 330.78331696 9.20646614 330.78464508 10.40709114 C330.78077789 11.63427864 330.77691071 12.86146614 330.77292633 14.12584114 C330.77679352 15.35302864 330.78066071 16.58021614 330.78464508 17.84459114 C330.78271149 19.59255989 330.78271149 19.59255989 330.78073883 21.37584114 C330.7796109 22.45349739 330.77848297 23.53115364 330.77732086 24.64146614 C330.64792633 27.12584114 330.64792633 27.12584114 329.64792633 28.12584114 C327.86612063 28.22418558 326.08037027 28.25139733 324.29585266 28.25168228 C322.54338486 28.2555939 322.54338486 28.2555939 320.75551367 28.25958455 C319.45564095 28.25735382 318.15576823 28.2551231 316.81650543 28.25282478 C315.43454653 28.25397565 314.05258793 28.25556293 312.67062998 28.25755203 C308.85528449 28.26175014 305.03996381 28.2596525 301.2246182 28.25656581 C297.11687373 28.25431388 293.00913368 28.25779028 288.90139008 28.26054573 C280.84727956 28.26500465 272.79317833 28.26402642 264.73906744 28.26113309 C258.19638262 28.25887953 251.65370041 28.25856633 245.11101532 28.25965691 C243.71703262 28.25988676 243.71703262 28.25988676 242.29488865 28.26012125 C240.40730091 28.26044096 238.51971317 28.26076517 236.63212544 28.26109384 C218.91026779 28.26394899 201.18841531 28.26066106 183.46655852 28.25529347 C168.24299494 28.2508254 153.01943899 28.25160133 137.79587555 28.25621223 C120.13971058 28.26155738 102.48355014 28.26367429 84.82738447 28.26059997 C82.94653543 28.2602814 81.06568639 28.25996703 79.18483734 28.25965691 C78.2592961 28.25950263 77.33375486 28.25934836 76.38016692 28.2591894 C69.84135194 28.25832407 63.30253982 28.25978748 56.76372528 28.26213646 C48.80082467 28.264934 40.83793392 28.26419717 32.87503445 28.25885572 C28.80816296 28.25621808 24.74130795 28.25521469 20.67443657 28.25850487 C16.95752976 28.26146656 13.24065484 28.25987717 9.52375096 28.25452732 C7.52928028 28.25286637 5.53480742 28.25616182 3.54033899 28.25958455 C2.37202713 28.2569768 1.20371526 28.25436905 0 28.25168228 C-1.01672869 28.25151993 -2.03345738 28.25135758 -3.08099604 28.2511903 C-5.35207367 28.12584114 -5.35207367 28.12584114 -6.35207367 27.12584114 C-6.45179152 25.21125832 -6.48287955 23.29301797 -6.48488617 21.37584114 C-6.48617523 20.21052864 -6.48746429 19.04521614 -6.48879242 17.84459114 C-6.48492523 16.61740364 -6.48105804 15.39021614 -6.47707367 14.12584114 C-6.48094086 12.89865364 -6.48480804 11.67146614 -6.48879242 10.40709114 C-6.48750336 9.24177864 -6.48621429 8.07646614 -6.48488617 6.87584114 C-6.48375824 5.79818489 -6.48263031 4.72052864 -6.4814682 3.61021614 C-6.24521649 -0.92581679 -4.01147633 0.00064056 0 0 Z " fill="#0C0C0C" transform="translate(136.3520736694336,96.87415885925293)"/>
<path d="M0 0 C4.7617472 2.12640248 8.72294239 2.74165544 13.6484375 0.9765625 C15.05419203 0.41074506 16.45645913 -0.16379894 17.85546875 -0.74609375 C26.17218617 -3.89534302 33.206865 -5.75237644 41.89453125 -2.66015625 C47.6954379 0.00741396 52.34399919 2.65145698 55.66796875 8.19140625 C54.58042215 11.45404604 54.10464982 11.81328669 51.48046875 13.75390625 C46.28975417 18.01350295 42.78251889 23.84775584 40.66796875 30.19140625 C40.10652973 36.70409893 41.15403986 41.61171311 44.66796875 47.19140625 C46.55696944 49.08962158 48.51672001 50.57796969 50.66796875 52.19140625 C50.66796875 52.85140625 50.66796875 53.51140625 50.66796875 54.19140625 C52.64796875 54.85140625 54.62796875 55.51140625 56.66796875 56.19140625 C58.22612253 60.54910006 57.18756223 63.16140968 55.36914062 67.16894531 C55.01400391 67.89823242 54.65886719 68.62751953 54.29296875 69.37890625 C53.93009766 70.13268555 53.56722656 70.88646484 53.19335938 71.66308594 C48.81522111 80.37820048 42.21068277 89.72762621 32.66796875 93.19140625 C25.26085594 94.54843455 19.78196 92.82988863 13.2734375 89.28515625 C9.11698117 87.54031701 6.02829964 87.66458377 1.84375 89.28515625 C0.42642578 89.98125 0.42642578 89.98125 -1.01953125 90.69140625 C-6.88217272 93.19879061 -12.01639644 94.94831784 -18.33203125 93.19140625 C-22.2369758 90.67099342 -25.24682617 87.64792805 -28.33203125 84.19140625 C-28.88503906 83.59199219 -29.43804688 82.99257812 -30.0078125 82.375 C-43.0912949 66.61134331 -49.36710131 44.68618849 -47.65722656 24.50732422 C-46.43653998 15.81405629 -41.19325779 8.92630926 -34.875 3.10546875 C-23.9631634 -5.10774159 -11.98345394 -6.52122842 0 0 Z " fill="#FD0D06" transform="translate(52.33203125,31.80859375)"/>
<path d="M0 0 C0.88490616 -0.00807175 1.76981232 -0.01614349 2.68153381 -0.02445984 C4.56379221 -0.03832681 6.44607603 -0.04903721 8.32836914 -0.05688477 C11.17970371 -0.07396151 14.02983719 -0.11780579 16.88085938 -0.16210938 C28.02871374 -0.25848038 37.4357965 -0.29662331 46.16015625 7.48828125 C52.32858615 14.26773487 54.60273523 21.65043556 54.51171875 30.69140625 C53.99028419 36.55304989 52.55535006 42.33299053 49.28515625 47.23828125 C48.62515625 47.23828125 47.96515625 47.23828125 47.28515625 47.23828125 C47.00671875 48.35203125 47.00671875 48.35203125 46.72265625 49.48828125 C44.7624517 53.23823778 42.14214411 54.66147659 38.28515625 56.23828125 C33.43092721 57.62648328 28.4754538 57.34927966 23.47265625 57.30078125 C22.14717773 57.29401367 22.14717773 57.29401367 20.79492188 57.28710938 C18.62497066 57.27537991 16.45505453 57.2574462 14.28515625 57.23828125 C14.41083984 58.82769531 14.41083984 58.82769531 14.5390625 60.44921875 C14.64222457 61.8372175 14.74507288 63.2252396 14.84765625 64.61328125 C14.90373047 65.31195313 14.95980469 66.010625 15.01757812 66.73046875 C15.3984375 72.01171875 15.3984375 72.01171875 14.28515625 74.23828125 C11.01434154 74.26730554 7.74355995 74.28508809 4.47265625 74.30078125 C3.54388672 74.30916016 2.61511719 74.31753906 1.65820312 74.32617188 C0.76552734 74.32939453 -0.12714844 74.33261719 -1.046875 74.3359375 C-1.86905518 74.34117432 -2.69123535 74.34641113 -3.53833008 74.35180664 C-5.71484375 74.23828125 -5.71484375 74.23828125 -8.71484375 73.23828125 C-8.8684325 63.8680044 -9.0166142 54.49766248 -9.15780735 45.12719059 C-9.22353393 40.77655911 -9.29115438 36.42597392 -9.36303711 32.07543945 C-9.43228139 27.88043987 -9.49663702 23.68539168 -9.55753899 19.49026299 C-9.58169762 17.88618665 -9.60764661 16.2821363 -9.63537788 14.67811775 C-9.67378632 12.43918042 -9.70594623 10.20023699 -9.73657227 7.96118164 C-9.75655777 6.68432999 -9.77654327 5.40747833 -9.7971344 4.0919342 C-9.62857606 -1.75328661 -4.66485526 0.04005492 0 0 Z M13.28515625 19.23828125 C13.25627111 22.38409548 13.23839702 25.52987594 13.22265625 28.67578125 C13.21427734 29.57361328 13.20589844 30.47144531 13.19726562 31.39648438 C13.19404297 32.25048828 13.19082031 33.10449219 13.1875 33.984375 C13.18226318 34.77513428 13.17702637 35.56589355 13.17163086 36.38061523 C13.08019716 38.25420814 13.08019716 38.25420814 14.28515625 39.23828125 C18.87153405 39.67993245 23.00365299 39.77224094 27.28515625 37.98828125 C29.44760615 36.09613758 30.24609559 34.89470329 31.28515625 32.23828125 C31.42425904 29.74201278 31.42425904 29.74201278 31.09765625 27.17578125 C31.02160156 26.31855469 30.94554687 25.46132813 30.8671875 24.578125 C30.19115084 21.86036687 29.53660597 20.87758565 27.28515625 19.23828125 C20.14855042 17.80862993 20.14855042 17.80862993 13.28515625 19.23828125 Z " fill="#FE0700" transform="translate(290.71484375,17.76171875)"/>
<path d="M0 0 C0.88964951 -0.00570007 1.77929901 -0.01140015 2.69590759 -0.01727295 C4.58656621 -0.02674315 6.47724149 -0.0332649 8.36791992 -0.03710938 C11.24102407 -0.04675309 14.11339398 -0.07773094 16.98632812 -0.109375 C18.82421451 -0.11591113 20.66210601 -0.1211592 22.5 -0.125 C23.35239761 -0.1373468 24.20479523 -0.1496936 25.08302307 -0.16241455 C34.23290924 -0.12880491 40.54146969 2.74180519 47.23046875 9.015625 C52.94062256 15.31028274 54.5248032 22.41466688 54.44140625 30.7265625 C53.90865805 36.55005139 51.9258194 42.05227127 49.21484375 47.203125 C48.55484375 47.203125 47.89484375 47.203125 47.21484375 47.203125 C46.98796875 47.986875 46.76109375 48.770625 46.52734375 49.578125 C45.21484375 52.203125 45.21484375 52.203125 42.71484375 53.515625 C40.21484375 54.203125 40.21484375 54.203125 38.21484375 54.203125 C38.21484375 54.863125 38.21484375 55.523125 38.21484375 56.203125 C33.29981617 57.49548215 28.44194273 57.31448017 23.40234375 57.265625 C22.07686523 57.25885742 22.07686523 57.25885742 20.72460938 57.25195312 C18.55465816 57.24022366 16.38474203 57.22228995 14.21484375 57.203125 C14.34052734 58.79253906 14.34052734 58.79253906 14.46875 60.4140625 C14.57191207 61.80206125 14.67476038 63.19008335 14.77734375 64.578125 C14.83341797 65.27679688 14.88949219 65.97546875 14.94726562 66.6953125 C15.328125 71.9765625 15.328125 71.9765625 14.21484375 74.203125 C10.94402904 74.23214929 7.67324745 74.24993184 4.40234375 74.265625 C3.47357422 74.27400391 2.54480469 74.28238281 1.58789062 74.29101562 C0.69521484 74.29423828 -0.19746094 74.29746094 -1.1171875 74.30078125 C-1.93936768 74.30601807 -2.76154785 74.31125488 -3.60864258 74.31665039 C-5.78515625 74.203125 -5.78515625 74.203125 -8.78515625 73.203125 C-8.938745 63.83284815 -9.0869267 54.46250623 -9.22811985 45.09203434 C-9.29384643 40.74140286 -9.36146688 36.39081767 -9.43334961 32.0402832 C-9.50259389 27.84528362 -9.56694952 23.65023543 -9.62785149 19.45510674 C-9.65201012 17.8510304 -9.67795911 16.24698005 -9.70569038 14.6429615 C-9.74409882 12.40402417 -9.77625873 10.16508074 -9.80688477 7.92602539 C-9.82687027 6.64917374 -9.84685577 5.37232208 -9.8674469 4.05677795 C-9.69815156 -1.81400034 -4.67329415 0.02291909 0 0 Z M13.21484375 19.203125 C13.18595861 22.34893923 13.16808452 25.49471969 13.15234375 28.640625 C13.14396484 29.53845703 13.13558594 30.43628906 13.12695312 31.36132812 C13.12373047 32.21533203 13.12050781 33.06933594 13.1171875 33.94921875 C13.11195068 34.73997803 13.10671387 35.5307373 13.10131836 36.34545898 C13.00988466 38.21905189 13.00988466 38.21905189 14.21484375 39.203125 C18.80122155 39.6447762 22.93334049 39.73708469 27.21484375 37.953125 C29.37692283 36.06130581 30.17199533 34.85722121 31.21484375 32.203125 C31.39096816 29.70821069 31.39096816 29.70821069 31.08984375 27.140625 C31.02539062 26.28339844 30.9609375 25.42617188 30.89453125 24.54296875 C30.01825628 21.526367 28.90976226 20.74029873 26.21484375 19.203125 C19.59629354 17.77815994 19.59629354 17.77815994 13.21484375 19.203125 Z " fill="#FE0700" transform="translate(220.78515625,17.796875)"/>
<path d="M0 0 C16.5 0 33 0 50 0 C51.69241865 4.23104661 52.35420059 6.78904061 52.6875 11.1875 C52.77386719 12.23292969 52.86023438 13.27835938 52.94921875 14.35546875 C53 17 53 17 52 19 C42.43 19 32.86 19 23 19 C23.33 21.31 23.66 23.62 24 26 C26.72923388 26.0270817 29.45819637 26.04687847 32.1875 26.0625 C32.95642578 26.07087891 33.72535156 26.07925781 34.51757812 26.08789062 C37.73298204 26.10169064 40.59226336 26.09364565 43.73828125 25.37109375 C46 25 46 25 51 27 C50.67 32.94 50.34 38.88 50 45 C42.125 46.125 42.125 46.125 37.94140625 46.09765625 C37.06162109 46.09443359 36.18183594 46.09121094 35.27539062 46.08789062 C34.38013672 46.07951172 33.48488281 46.07113281 32.5625 46.0625 C31.64017578 46.05798828 30.71785156 46.05347656 29.76757812 46.04882812 C27.51164952 46.03713938 25.25586033 46.02075455 23 46 C23.33 48.31 23.66 50.62 24 53 C24.87325928 52.99476318 25.74651855 52.98952637 26.64624023 52.98413086 C29.87589273 52.96712249 33.10552245 52.95456631 36.33520508 52.94506836 C37.73495228 52.9400292 39.1346942 52.93319784 40.53442383 52.92456055 C42.54245777 52.9124768 44.55052957 52.90730193 46.55859375 52.90234375 C48.37315063 52.89448853 48.37315063 52.89448853 50.22436523 52.88647461 C53 53 53 53 54 54 C54.63693615 60.63598595 54.01247219 67.97505562 51 74 C44.07665012 74.07595711 37.15340737 74.12856051 30.22973633 74.16479492 C27.87357569 74.17989747 25.51744323 74.20038091 23.16137695 74.22631836 C19.77808688 74.26263656 16.39516792 74.27971167 13.01171875 74.29296875 C11.42722176 74.31619453 11.42722176 74.31619453 9.81071472 74.33988953 C8.33952934 74.34022942 8.33952934 74.34022942 6.83862305 74.34057617 C5.97480515 74.34723801 5.11098724 74.35389984 4.22099304 74.36076355 C2 74 2 74 0.21809387 72.70478821 C-1.83816502 69.82694275 -1.34793278 66.52204324 -1.25 63.125 C-1.24484375 62.41730469 -1.2396875 61.70960937 -1.234375 60.98046875 C-1.192542 58.17242857 -1.10740487 55.48228219 -0.49560547 52.73510742 C0.13286709 49.26674381 0.14307198 45.86683949 0.1328125 42.35546875 C0.13376923 41.62685135 0.13472595 40.89823395 0.13571167 40.14753723 C0.13638998 38.61032016 0.13456012 37.07310018 0.13037109 35.53588867 C0.12504117 33.20549944 0.13031592 30.87530498 0.13671875 28.54492188 C0.13605745 27.04427041 0.13477523 25.54361907 0.1328125 24.04296875 C0.13483673 23.35623581 0.13686096 22.66950287 0.13894653 21.96195984 C0.11642183 17.2174153 -0.36810585 12.69102651 -1 8 C-1.20689655 2.4137931 -1.20689655 2.4137931 0 0 Z " fill="#FE0700" transform="translate(411,18)"/>
<path d="M0 0 C2.38237994 0.29265775 2.38237994 0.29265775 5.83984375 -0.578125 C6.91234375 -0.660625 7.98484375 -0.743125 9.08984375 -0.828125 C13.22688061 3.18529522 14.95059904 8.21239524 16.96484375 13.484375 C17.31506592 14.38099854 17.66528809 15.27762207 18.02612305 16.20141602 C19.05829407 18.8541876 20.07712821 21.51162275 21.08984375 24.171875 C21.47245361 25.17589355 21.47245361 25.17589355 21.86279297 26.20019531 C22.77645485 28.60782656 23.68445776 31.01741576 24.57397461 33.43408203 C26.0619642 37.47169706 27.59960806 41.48667308 29.17604065 45.4907074 C30.20815039 48.11599341 31.23020888 50.74514831 32.25180054 53.37454224 C32.76586474 54.69017682 33.28439371 56.0040762 33.80752563 57.31613159 C34.54741954 59.17359482 35.27010496 61.03788419 35.9921875 62.90234375 C36.42007568 63.98926514 36.84796387 65.07618652 37.28881836 66.19604492 C38.1418659 69.36513863 38.16334542 71.09002051 37.08984375 74.171875 C33.83714924 75.79822226 30.28505875 75.35640971 26.71484375 75.359375 C25.9465625 75.37162109 25.17828125 75.38386719 24.38671875 75.39648438 C16.88435743 75.41595417 16.88435743 75.41595417 14.08984375 73.171875 C13.25390625 71.26171875 13.25390625 71.26171875 12.71484375 69.109375 C12.03935446 66.97642026 12.03935446 66.97642026 11.08984375 65.171875 C8.45207909 63.96359545 8.45207909 63.96359545 5.08984375 64.171875 C4.29707031 64.14867188 3.50429687 64.12546875 2.6875 64.1015625 C-1.96340877 64.00364863 -6.33903023 64.20953268 -10.91015625 65.171875 C-10.99265625 66.265 -11.07515625 67.358125 -11.16015625 68.484375 C-11.91015625 72.171875 -11.91015625 72.171875 -13.453125 73.88671875 C-16.91514853 75.69753869 -20.16685901 75.53149292 -23.97265625 75.421875 C-24.69259766 75.41671875 -25.41253906 75.4115625 -26.15429688 75.40625 C-29.31823458 75.35924628 -31.89128501 75.17816541 -34.91015625 74.171875 C-35.8376399 71.96252501 -36.02250404 70.63864895 -35.46044922 68.3034668 C-35.19377441 67.66578369 -34.92709961 67.02810059 -34.65234375 66.37109375 C-34.35585937 65.63955078 -34.059375 64.90800781 -33.75390625 64.15429688 C-33.43421875 63.39697266 -33.11453125 62.63964844 -32.78515625 61.859375 C-30.2227556 55.68176126 -27.97198068 49.46039136 -25.88586426 43.10453796 C-23.72741717 36.55441771 -21.38267194 30.0780987 -18.99804688 23.60742188 C-18.27550431 21.64566932 -17.55748193 19.68230129 -16.83984375 17.71875 C-16.37135725 16.44261157 -15.90261673 15.16656635 -15.43359375 13.890625 C-15.02028809 12.76591797 -14.60698242 11.64121094 -14.18115234 10.48242188 C-10.31474002 0.41162834 -10.31474002 0.41162834 -8.22265625 -0.828125 C-5.43457782 -0.828125 -2.75069133 -0.43027574 0 0 Z M1.08984375 30.171875 C-2.36845635 34.68270122 -3.00800862 39.70592169 -3.91015625 45.171875 C-0.94015625 45.171875 2.02984375 45.171875 5.08984375 45.171875 C5.51573398 39.63530206 3.99509075 35.27521517 2.08984375 30.171875 C1.75984375 30.171875 1.42984375 30.171875 1.08984375 30.171875 Z " fill="#FE0700" transform="translate(167.91015625,16.828125)"/>
<path d="M0 0 C7.59 0 15.18 0 23 0 C23.14679193 18.34899077 22.58135133 36.66269479 22 55 C22.98564941 54.9292627 23.97129883 54.85852539 24.98681641 54.78564453 C31.78702925 54.31210138 38.5552128 53.86045888 45.375 53.875 C46.62023437 53.87242188 47.86546875 53.86984375 49.1484375 53.8671875 C52 54 52 54 53 55 C53.12694775 56.87174131 53.17586225 58.74899472 53.1875 60.625 C53.20167969 61.64851563 53.21585937 62.67203125 53.23046875 63.7265625 C52.97406031 67.36843146 52.04354897 70.51081891 51 74 C44.70120703 74.05082181 38.4024672 74.08578472 32.10351562 74.10986328 C29.96189396 74.11990416 27.82028595 74.13353954 25.67871094 74.15087891 C22.59566879 74.17521118 19.51280835 74.18650242 16.4296875 74.1953125 C15.47633514 74.20563507 14.52298279 74.21595764 13.54074097 74.22659302 C12.64026031 74.22674408 11.73977966 74.22689514 10.81201172 74.22705078 C10.02591522 74.231492 9.23981873 74.23593323 8.42990112 74.24050903 C6 74 6 74 0 72 C0 48.24 0 24.48 0 0 Z " fill="#FE0700" transform="translate(352,18)"/>
<path d="M0 0 C0.6889733 8.05333235 0.01326113 14.43474935 -5 21 C-9.5797042 25.11487565 -14.8571092 28.85713659 -21 30 C-22.67403179 29.70588021 -24.34278394 29.37752326 -26 29 C-26.69541038 20.87142537 -25.85541508 14.71744319 -21 8 C-15.80516191 2.64705814 -7.57844244 -2.47494179 0 0 Z " fill="#FC140F" transform="translate(83,2)"/>
<path d="M0 0 C10.40988295 -0.36740763 10.40988295 -0.36740763 12.83203125 1.140625 C14.49449153 3.78721728 14.39802113 5.83348405 14.375 8.9375 C14.38273437 9.97777344 14.39046875 11.01804687 14.3984375 12.08984375 C13.94750369 15.38342897 13.47962458 16.78472772 11 19 C7.27101421 19.53965062 3.78628294 19.17817802 0 19 C0 12.73 0 6.46 0 0 Z " fill="#E7E7E7" transform="translate(359,101)"/>
<path d="M0 0 C4.51015774 1.23004302 4.51015774 1.23004302 6.4375 3.9375 C6.87109375 6.93359375 6.87109375 6.93359375 6.875 10.375 C6.89433594 11.50808594 6.91367187 12.64117187 6.93359375 13.80859375 C6.34242358 17.53715525 5.41957351 18.6942042 2.4375 20.9375 C-0.5625 21.5 -0.5625 21.5 -3.5625 20.9375 C-5.9375 19.1875 -5.9375 19.1875 -7.5625 15.9375 C-8.92725814 5.72966619 -8.92725814 5.72966619 -5.75390625 1.5625 C-3.5625 -0.0625 -3.5625 -0.0625 0 0 Z " fill="#E4E4E4" transform="translate(284.5625,100.0625)"/>
<path d="M0 0 C1.76150391 -0.02126953 1.76150391 -0.02126953 3.55859375 -0.04296875 C6.5625 0.1875 6.5625 0.1875 8.5625 2.1875 C8.57421875 4.31640625 8.57421875 4.31640625 8.25 6.75 C8.15074219 7.55566406 8.05148438 8.36132812 7.94921875 9.19140625 C7.5625 11.1875 7.5625 11.1875 6.5625 12.1875 C6.17101239 13.69915654 5.82277543 15.22219632 5.5 16.75 C5.32339844 17.57628906 5.14679688 18.40257813 4.96484375 19.25390625 C4.83207031 19.89199219 4.69929688 20.53007813 4.5625 21.1875 C3.9025 21.1875 3.2425 21.1875 2.5625 21.1875 C2.2325 18.5475 1.9025 15.9075 1.5625 13.1875 C0.5725 13.1875 -0.4175 13.1875 -1.4375 13.1875 C-1.7675 15.8275 -2.0975 18.4675 -2.4375 21.1875 C-3.0975 21.1875 -3.7575 21.1875 -4.4375 21.1875 C-4.57027344 20.47722656 -4.70304687 19.76695313 -4.83984375 19.03515625 C-5.01644531 18.11605469 -5.19304688 17.19695312 -5.375 16.25 C-5.54902344 15.33347656 -5.72304688 14.41695312 -5.90234375 13.47265625 C-6.21464988 11.23460156 -6.21464988 11.23460156 -7.4375 10.1875 C-7.5354057 8.69011876 -7.56724864 7.18807108 -7.5625 5.6875 C-7.56507812 4.8728125 -7.56765625 4.058125 -7.5703125 3.21875 C-7.28021054 -1.21810346 -3.67806694 0.02014275 0 0 Z " fill="#FCECEC" transform="translate(59.4375,64.8125)"/>
<path d="M0 0 C1.65 0 3.3 0 5 0 C6.98 3.96 8.96 7.92 11 12 C11.33 8.04 11.66 4.08 12 0 C13.32 0 14.64 0 16 0 C16 6.93 16 13.86 16 21 C14.35 21 12.7 21 11 21 C9.02 17.04 7.04 13.08 5 9 C4.67 12.96 4.34 16.92 4 21 C2.68 21 1.36 21 0 21 C0 14.07 0 7.14 0 0 Z " fill="#D6D6D6" transform="translate(216,100)"/>
<path d="M0 0 C1.65 0 3.3 0 5 0 C6.98 3.96 8.96 7.92 11 12 C11.33 8.04 11.66 4.08 12 0 C13.32 0 14.64 0 16 0 C16 6.93 16 13.86 16 21 C14.02 21 12.04 21 10 21 C9.58427734 19.95199219 9.58427734 19.95199219 9.16015625 18.8828125 C8.79792969 17.97273438 8.43570313 17.06265625 8.0625 16.125 C7.70285156 15.22007813 7.34320313 14.31515625 6.97265625 13.3828125 C6.05098738 11.03862333 6.05098738 11.03862333 5 9 C4.67 12.96 4.34 16.92 4 21 C2.68 21 1.36 21 0 21 C0 14.07 0 7.14 0 0 Z " fill="#D3D3D3" transform="translate(144,100)"/>
<path d="M0 0 C1.32 0 2.64 0 4 0 C4 6.93 4 13.86 4 21 C2.35 21 0.7 21 -1 21 C-1.81837442 19.58671871 -2.62946219 18.16921654 -3.4375 16.75 C-4.11619141 15.56664063 -4.11619141 15.56664063 -4.80859375 14.359375 C-6 12 -6 12 -7 8 C-7.33 11.96 -7.66 15.92 -8 20 C-8.99 20 -9.98 20 -11 20 C-11 13.73 -11 7.46 -11 1 C-9.35 1 -7.7 1 -6 1 C-4.35 4.63 -2.7 8.26 -1 12 C-0.67 8.04 -0.34 4.08 0 0 Z " fill="#D4D4D4" transform="translate(307,100)"/>
<path d="M0 0 C1.32 0 2.64 0 4 0 C4 6.93 4 13.86 4 21 C2.35 21 0.7 21 -1 21 C-1.26554687 20.39671875 -1.53109375 19.7934375 -1.8046875 19.171875 C-2.33449219 17.97304687 -2.33449219 17.97304687 -2.875 16.75 C-3.39707031 15.56664063 -3.39707031 15.56664063 -3.9296875 14.359375 C-4.90214201 12.21571615 -5.94729482 10.10541037 -7 8 C-7.33 11.96 -7.66 15.92 -8 20 C-8.99 20 -9.98 20 -11 20 C-11 13.73 -11 7.46 -11 1 C-9.35 1 -7.7 1 -6 1 C-4.35 4.3 -2.7 7.6 -1 11 C-0.67 7.37 -0.34 3.74 0 0 Z " fill="#D6D6D6" transform="translate(406,100)"/>
<path d="M0 0 C8.3984375 -0.1953125 8.3984375 -0.1953125 11 0 C13 2 13 2 13.25 5.375 C13 9 13 9 11.8125 11.0625 C11.544375 11.701875 11.27625 12.34125 11 13 C12.28322447 16.23394361 12.28322447 16.23394361 14 19 C11.6875 18.8125 11.6875 18.8125 9 18 C7.375 15.5 7.375 15.5 6 13 C5.01 12.67 4.02 12.34 3 12 C3 14.31 3 16.62 3 19 C2.01 19 1.02 19 0 19 C0 12.73 0 6.46 0 0 Z " fill="#F3F3F3" transform="translate(198,101)"/>
<path d="M0 0 C1.32 0 2.64 0 4 0 C5.1721449 2.95619219 6.33677476 5.91528789 7.5 8.875 C7.83386719 9.71675781 8.16773438 10.55851562 8.51171875 11.42578125 C8.98544922 12.63427734 8.98544922 12.63427734 9.46875 13.8671875 C9.90864258 14.98262939 9.90864258 14.98262939 10.35742188 16.12060547 C11 18 11 18 11 20 C9.35 19.67 7.7 19.34 6 19 C6 18.01 6 17.02 6 16 C3.36 16 0.72 16 -2 16 C-2 17.32 -2 18.64 -2 20 C-3.65 20 -5.3 20 -7 20 C-4.80962826 13.27954125 -2.44234339 6.63275997 0 0 Z " fill="#DCDCDC" transform="translate(241,101)"/>
<path d="M0 0 C1.89453125 0.015625 1.89453125 0.015625 4 1 C5.44921875 3.984375 5.44921875 3.984375 6.6875 7.75 C7.10386719 8.98234375 7.52023437 10.2146875 7.94921875 11.484375 C8.79876935 14.32673762 9.49312953 17.08131727 10 20 C8.35 19.67 6.7 19.34 5 19 C5 18.01 5 17.02 5 16 C2.69 16.33 0.38 16.66 -2 17 C-2.33 17.99 -2.66 18.98 -3 20 C-4.32 20 -5.64 20 -7 20 C-6.28298649 15.73051048 -4.96429029 11.81936489 -3.5 7.75 C-3.0565625 6.50734375 -2.613125 5.2646875 -2.15625 3.984375 C-1 1 -1 1 0 0 Z " fill="#E2E2E2" transform="translate(321,101)"/>
<path d="M0 0 C1.32 0 2.64 0 4 0 C5.1721449 2.95619219 6.33677476 5.91528789 7.5 8.875 C7.83386719 9.71675781 8.16773438 10.55851562 8.51171875 11.42578125 C8.98544922 12.63427734 8.98544922 12.63427734 9.46875 13.8671875 C9.90864258 14.98262939 9.90864258 14.98262939 10.35742188 16.12060547 C11 18 11 18 11 20 C9.35 19.67 7.7 19.34 6 19 C6 18.01 6 17.02 6 16 C3.6568787 16.25561323 1.32156597 16.59270772 -1 17 C-1.33 17.66 -1.66 18.32 -2 19 C-3.32 19 -4.64 19 -6 19 C-5.34055037 14.64763247 -3.73618234 11.02794303 -2 7 C-1.25837921 4.68017399 -0.62486828 2.35527276 0 0 Z " fill="#E2E2E2" transform="translate(434,101)"/>
<path d="M0 0 C4.29 0 8.58 0 13 0 C13 0.99 13 1.98 13 3 C10.03 3 7.06 3 4 3 C4 4.65 4 6.3 4 8 C6.64 8 9.28 8 12 8 C12 8.99 12 9.98 12 11 C9.36 11 6.72 11 4 11 C4 12.65 4 14.3 4 16 C7.3 16 10.6 16 14 16 C14 17.32 14 18.64 14 20 C9.38 20 4.76 20 0 20 C0 13.4 0 6.8 0 0 Z " fill="#E7E7E7" transform="translate(180,101)"/>
<path d="M0 0 C2.00720923 0.28674418 4.0085944 0.61866701 6 1 C6 1.66 6 2.32 6 3 C9.3 2.67 12.6 2.34 16 2 C16.33 2.66 16.66 3.32 17 4 C18.65 3.67 20.3 3.34 22 3 C22 2.34 22 1.68 22 1 C22.66 1 23.32 1 24 1 C24 3.31 24 5.62 24 8 C16.08 8 8.16 8 0 8 C-0.33 5.69 -0.66 3.38 -1 1 C-0.67 0.67 -0.34 0.34 0 0 Z " fill="#F79896" transform="translate(48,86)"/>
<path d="M0 0 C4.29 0 8.58 0 13 0 C13 0.99 13 1.98 13 3 C9.7 3 6.4 3 3 3 C3 4.65 3 6.3 3 8 C5.64 8 8.28 8 11 8 C11 8.99 11 9.98 11 11 C8.36 11 5.72 11 3 11 C3 12.65 3 14.3 3 16 C5.97 16 8.94 16 12 16 C12 16.99 12 17.98 12 19 C8.04 19 4.08 19 0 19 C0 12.73 0 6.46 0 0 Z " fill="#F8F8F8" transform="translate(378,101)"/>
<path d="M0 0 C1.32 0 2.64 0 4 0 C4 5.28 4 10.56 4 16 C7.3 16 10.6 16 14 16 C14 17.32 14 18.64 14 20 C9.38 20 4.76 20 0 20 C0 13.4 0 6.8 0 0 Z " fill="#DEDEDE" transform="translate(334,101)"/>
<path d="M0 0 C4.62 0 9.24 0 14 0 C14 1.32 14 2.64 14 4 C12.35 4 10.7 4 9 4 C9 9.28 9 14.56 9 20 C7.68 20 6.36 20 5 20 C5 14.39 5 8.78 5 3 C3.35 3 1.7 3 0 3 C0 2.01 0 1.02 0 0 Z " fill="#E4E4E4" transform="translate(252,101)"/>
<path d="M0 0 C4.62 0 9.24 0 14 0 C14 0.99 14 1.98 14 3 C12.35 3 10.7 3 9 3 C9 8.61 9 14.22 9 20 C7.68 20 6.36 20 5 20 C5 14.72 5 9.44 5 4 C3.35 4 1.7 4 0 4 C0 2.68 0 1.36 0 0 Z " fill="#DEDEDE" transform="translate(163,101)"/>
<path d="M0 0 C0.99 0 1.98 0 3 0 C3 0.66 3 1.32 3 2 C4.27875 1.979375 5.5575 1.95875 6.875 1.9375 C10.75 1.875 10.75 1.875 13 3 C13 2.01 13 1.02 13 0 C13.66 0 14.32 0 15 0 C15.33 0.66 15.66 1.32 16 2 C16.99 2 17.98 2 19 2 C19 2.66 19 3.32 19 4 C18.34 4 17.68 4 17 4 C17 4.99 17 5.98 17 7 C14.36 7 11.72 7 9 7 C9 7.66 9 8.32 9 9 C8.34 9 7.68 9 7 9 C7 8.34 7 7.68 7 7 C6.01 7 5.02 7 4 7 C4 7.66 4 8.32 4 9 C3.34 9 2.68 9 2 9 C2 8.34 2 7.68 2 7 C0.35 7.33 -1.3 7.66 -3 8 C-3 6.35 -3 4.7 -3 3 C-2.34 3 -1.68 3 -1 3 C-0.67 2.01 -0.34 1.02 0 0 Z " fill="#F7AAA8" transform="translate(52,54)"/>
<path d="M0 0 C1.32 0 2.64 0 4 0 C4 5.61 4 11.22 4 17 C6.97 17 9.94 17 13 17 C13 17.99 13 18.98 13 20 C8.71 20 4.42 20 0 20 C0 13.4 0 6.8 0 0 Z " fill="#E2E2E2" transform="translate(448,100)"/>
<path d="M0 0 C4.62 0 9.24 0 14 0 C14 0.99 14 1.98 14 3 C12.35 3 10.7 3 9 3 C9 8.28 9 13.56 9 19 C8.01 19 7.02 19 6 19 C6 13.72 6 8.44 6 3 C4.02 3 2.04 3 0 3 C0 2.01 0 1.02 0 0 Z " fill="#F7F7F7" transform="translate(413,101)"/>
<path d="M0 0 C1.32 0 2.64 0 4 0 C4 6.93 4 13.86 4 21 C2.68 21 1.36 21 0 21 C0 14.07 0 7.14 0 0 Z " fill="#D7D7D7" transform="translate(136,100)"/>
<path d="M0 0 C0.99 0.33 1.98 0.66 3 1 C3.0515625 1.77859375 3.103125 2.5571875 3.15625 3.359375 C3.96834084 11.3695437 5.93491947 18.18087662 8.9375 25.625 C9.28554687 26.48963867 9.63359375 27.35427734 9.9921875 28.24511719 C11.90428926 32.91020589 11.90428926 32.91020589 14.68579102 37.07958984 C15.11947998 37.7133252 15.55316895 38.34706055 16 39 C15.67 39.99 15.34 40.98 15 42 C7.38533963 29.56713021 -0.75106944 15.02138883 0 0 Z " fill="#F8928E" transform="translate(5,69)"/>
<path d="M0 0 C1.2101014 3.63030419 0.75895253 4.36533302 -0.8125 7.75 C-4.47817882 14.7536992 -10.26270456 18.3076398 -17.3125 21.5 C-20.23584972 22.04387902 -22.13188728 21.65337241 -25 21 C-25.05410687 19.22950311 -25.09284119 17.45853151 -25.125 15.6875 C-25.14820313 14.70136719 -25.17140625 13.71523438 -25.1953125 12.69921875 C-25 10 -25 10 -23 7 C-23 11.29 -23 15.58 -23 20 C-19.04 19.505 -19.04 19.505 -15 19 C-15 18.34 -15 17.68 -15 17 C-13.700625 16.4740625 -13.700625 16.4740625 -12.375 15.9375 C-5.85639903 12.19534019 -2.54679743 6.93294857 0 0 Z " fill="#F46361" transform="translate(82,10)"/>
<path d="M0 0 C1.65 0 3.3 0 5 0 C6.4606285 2.64738916 7 3.89448334 7 7 C6.01 7 5.02 7 4 7 C3.67 10.96 3.34 14.92 3 19 C2.01 19 1.02 19 0 19 C0 12.73 0 6.46 0 0 Z " fill="#F3F3F3" transform="translate(395,101)"/>
<path d="M0 0 C1.65 0 3.3 0 5 0 C6.4606285 2.64738916 7 3.89448334 7 7 C6.01 7 5.02 7 4 7 C3.67 10.96 3.34 14.92 3 19 C2.01 19 1.02 19 0 19 C0 12.73 0 6.46 0 0 Z " fill="#EFEFEF" transform="translate(296,101)"/>
<path d="M0 0 C1.65 0.33 3.3 0.66 5 1 C5 4.63 5 8.26 5 12 C3.35 12.33 1.7 12.66 0 13 C-1 12 -1 12 -1.1328125 9.53125 C-1.13023437 8.5309375 -1.12765625 7.530625 -1.125 6.5 C-1.12757813 5.4996875 -1.13015625 4.499375 -1.1328125 3.46875 C-1 1 -1 1 0 0 Z " fill="#111111" transform="translate(282,104)"/>
<path d="M0 0 C2.0625 0.4375 2.0625 0.4375 4 1 C4 3.64 4 6.28 4 9 C4.66 9 5.32 9 6 9 C6.33 8.34 6.66 7.68 7 7 C7.625 9.3125 7.625 9.3125 8 12 C7.01 13.485 7.01 13.485 6 15 C6 13.68 6 12.36 6 11 C3.69 11.33 1.38 11.66 -1 12 C-1 11.01 -1 10.02 -1 9 C-1.01160156 8.33742188 -1.02320313 7.67484375 -1.03515625 6.9921875 C-1.06095117 4.99492386 -1.03221243 2.99717045 -1 1 C-0.67 0.67 -0.34 0.34 0 0 Z " fill="#FA3030" transform="translate(58,77)"/>
<path d="M0 0 C1.98 0 3.96 0 6 0 C6.02687279 1.81242052 6.04633715 3.62495233 6.0625 5.4375 C6.07410156 6.44683594 6.08570313 7.45617187 6.09765625 8.49609375 C6 11 6 11 5 12 C3.35 12 1.7 12 0 12 C0 8.04 0 4.08 0 0 Z " fill="#090909" transform="translate(363,105)"/>
<path d="M0 0 C0.99 0.33 1.98 0.66 3 1 C-2.52290623 13.97205769 -8.39013643 26.79886312 -22 33 C-22.66 33 -23.32 33 -24 33 C-24 32.34 -24 31.68 -24 31 C-23.41992188 30.70867187 -22.83984375 30.41734375 -22.2421875 30.1171875 C-16.27070899 26.98363937 -10.24586362 23.73759086 -8 17 C-7.34 17 -6.68 17 -6 17 C-5.87625 16.42121094 -5.7525 15.84242187 -5.625 15.24609375 C-4.99020878 12.9648128 -4.12049856 11.14283741 -3 9.0625 C-1.44554962 6.04934437 -0.42497923 3.39983381 0 0 Z " fill="#F88F8A" transform="translate(107,92)"/>
<path d="M0 0 C1.8871875 0.0309375 1.8871875 0.0309375 3.8125 0.0625 C3.8125 0.3925 3.8125 0.7225 3.8125 1.0625 C2.69875 1.31 1.585 1.5575 0.4375 1.8125 C-2.90659974 2.62354704 -5.86674154 3.77377378 -9 5.1875 C-14.2694592 7.36543437 -19.53984646 8.10557744 -25.1875 7.0625 C-27.00390625 5.53515625 -27.00390625 5.53515625 -28.1875 4.0625 C-27.341875 4.09730469 -26.49625 4.13210937 -25.625 4.16796875 C-18.64584982 4.33451665 -13.52836293 3.99808469 -7.1875 1.0625 C-4.43671116 0.14557039 -2.82801087 -0.04636083 0 0 Z " fill="#F35956" transform="translate(59.1875,117.9375)"/>
<path d="M0 0 C0.99 0 1.98 0 3 0 C3 6.27 3 12.54 3 19 C2.01 19 1.02 19 0 19 C0 12.73 0 6.46 0 0 Z " fill="#FCFCFC" transform="translate(269,101)"/>
<path d="M0 0 C0.99 0 1.98 0 3 0 C3.93065133 2.60582371 4.14917407 3.64198224 3.0625 6.25 C2.5365625 7.11625 2.5365625 7.11625 2 8 C0.33333333 8 -1.33333333 8 -3 8 C-3 6.35 -3 4.7 -3 3 C-2.34 3 -1.68 3 -1 3 C-0.67 2.01 -0.34 1.02 0 0 Z " fill="#F79A98" transform="translate(52,54)"/>
<path d="M0 0 C1.98 0 3.96 0 6 0 C6.5625 1.9375 6.5625 1.9375 7 4 C6 5 6 5 2.9375 5.0625 C1.4834375 5.0315625 1.4834375 5.0315625 0 5 C0 3.35 0 1.7 0 0 Z " fill="#303030" transform="translate(201,104)"/>
<path d="M0 0 C0.33 0 0.66 0 1 0 C1 4.29 1 8.58 1 13 C1.99 13 2.98 13 4 13 C4 13.66 4 14.32 4 15 C2.35 14.67 0.7 14.34 -1 14 C-1.02705729 12.22925083 -1.04642195 10.45838289 -1.0625 8.6875 C-1.07410156 7.70136719 -1.08570313 6.71523438 -1.09765625 5.69921875 C-1 3 -1 3 0 0 Z " fill="#F65650" transform="translate(58,17)"/>
<path d="M0 0 C0.66 0.33 1.32 0.66 2 1 C2.99 1.33 3.98 1.66 5 2 C5.33 2.99 5.66 3.98 6 5 C5.67 5.66 5.34 6.32 5 7 C4.34 7 3.68 7 3 7 C3 6.34 3 5.68 3 5 C2.01 5 1.02 5 0 5 C0 5.66 0 6.32 0 7 C-0.66 6.67 -1.32 6.34 -2 6 C-1.34 4.02 -0.68 2.04 0 0 Z " fill="#F8BDBB" transform="translate(56,56)"/>
<path d="M0 0 C0 0.99 0 1.98 0 3 C-1.609375 4.5703125 -1.609375 4.5703125 -3.75 6.125 C-4.79414062 6.90230469 -4.79414062 6.90230469 -5.859375 7.6953125 C-7.94594343 8.96705311 -9.61293238 9.55914517 -12 10 C-12 9.34 -12 8.68 -12 8 C-11.38511719 7.67386719 -10.77023438 7.34773438 -10.13671875 7.01171875 C-8.92435547 6.35623047 -8.92435547 6.35623047 -7.6875 5.6875 C-6.88699219 5.25824219 -6.08648437 4.82898438 -5.26171875 4.38671875 C-3.16212728 3.09940446 -1.64552279 1.81593292 0 0 Z " fill="#F46864" transform="translate(95,115)"/>
<path d="M0 0 C0.99 0.33 1.98 0.66 3 1 C3 3.97 3 6.94 3 10 C2.34 9.67 1.68 9.34 1 9 C0.5859375 6.93359375 0.5859375 6.93359375 0.375 4.4375 C0.30023437 3.61121094 0.22546875 2.78492187 0.1484375 1.93359375 C0.09945313 1.29550781 0.05046875 0.65742187 0 0 Z " fill="#F96562" transform="translate(5,69)"/>
<path d="M0 0 C1 3 1 3 0.07421875 5.4453125 C-0.38339844 6.32960938 -0.84101562 7.21390625 -1.3125 8.125 C-1.98732422 9.45917969 -1.98732422 9.45917969 -2.67578125 10.8203125 C-4 13 -4 13 -6 14 C-5.31113213 10.61108678 -4.01283514 7.81988387 -2.4375 4.75 C-1.75494141 3.41195313 -1.75494141 3.41195313 -1.05859375 2.046875 C-0.70925781 1.37140625 -0.35992187 0.6959375 0 0 Z " fill="#F78380" transform="translate(82,10)"/>
<path d="M0 0 C0.99 0.33 1.98 0.66 3 1 C2.34 1 1.68 1 1 1 C0.67 2.98 0.34 4.96 0 7 C-0.99 7 -1.98 7 -3 7 C-3.33 6.34 -3.66 5.68 -4 5 C-2.52830189 1.26415094 -2.52830189 1.26415094 0 0 Z " fill="#E3E3E3" transform="translate(434,107)"/>
<path d="M0 0 C0.66 0.33 1.32 0.66 2 1 C2.625 3.5625 2.625 3.5625 3 6 C1.35 6 -0.3 6 -2 6 C-1.34 4.02 -0.68 2.04 0 0 Z " fill="#494949" transform="translate(322,108)"/>
<path d="M0 0 C0.33 0 0.66 0 1 0 C1 3.96 1 7.92 1 12 C-2 9 -2 9 -3 6 C-2.34 6 -1.68 6 -1 6 C-0.67 4.02 -0.34 2.04 0 0 Z " fill="#202020" transform="translate(306,101)"/>
<path d="M0 0 C3.3 0.33 6.6 0.66 10 1 C10 1.66 10 2.32 10 3 C6.6875 3.1875 6.6875 3.1875 3 3 C2.01 2.01 1.02 1.02 0 0 Z " fill="#F2403D" transform="translate(31,122)"/>
<path d="M0 0 C0.66 0 1.32 0 2 0 C2.33 1.98 2.66 3.96 3 6 C1.68 6 0.36 6 -1 6 C-0.67 4.02 -0.34 2.04 0 0 Z " fill="#424242" transform="translate(435,108)"/>
<path d="M0 0 C1.80125336 2.70188004 3.00243753 4.93057703 4 8 C3.67 8.99 3.34 9.98 3 11 C0.29417212 7.16674383 -0.32613618 4.67461851 0 0 Z " fill="#F76765" transform="translate(11,89)"/>
<path d="M0 0 C0 0.66 0 1.32 0 2 C-6.96428571 5.34821429 -6.96428571 5.34821429 -11 4 C-9.5437455 3.32880451 -8.08492133 2.66318193 -6.625 2 C-5.81289063 1.62875 -5.00078125 1.2575 -4.1640625 0.875 C-2 0 -2 0 0 0 Z " fill="#F46B69" transform="translate(34,28)"/>
<path d="M0 0 C0.66 0 1.32 0 2 0 C2.33 1.98 2.66 3.96 3 6 C1.68 6 0.36 6 -1 6 C-0.67 4.02 -0.34 2.04 0 0 Z " fill="#383838" transform="translate(242,108)"/>
<path d="M0 0 C1.65 0 3.3 0 5 0 C5.33 1.32 5.66 2.64 6 4 C5.01 4 4.02 4 3 4 C3 3.34 3 2.68 3 2 C2.01 2 1.02 2 0 2 C-0.33 2.66 -0.66 3.32 -1 4 C-0.67 2.68 -0.34 1.36 0 0 Z " fill="#F79896" transform="translate(58,56)"/>
</svg>
