<svg id="fi_17104793" width="60" fill="#fff" height="60" viewBox="0 0 64 64" xmlns="http://www.w3.org/2000/svg"><path d="m60.933 47.78c-.027-3.62-2.254-7-5.674-8.613l-11.806-5.568c-.012-.005-.024-.004-.036-.009-.009-.004-.015-.013-.025-.017-1.027-.404-1.674-1.67-1.934-3.744 1.86-3.094 3.07-6.678 3.07-9.711 0-.217-.026-.435-.038-.653.162-.096.298-.235.385-.409.375-.749 3.601-7.421 1.627-11.095-.406-.755-1.197-1.674-2.715-2.081-.117-.737-.458-1.803-1.404-2.829-1.991-2.159-5.695-3.184-10.974-3.038-5.672.153-9.627 1.856-11.756 5.062-2.201 3.315-2.225 8.028-.092 13.632-.058.469-.09.94-.09 1.41 0 2.993 1.177 6.521 2.994 9.587-.193 1.564-.687 3.376-1.938 3.868-.009.004-.014.012-.023.016-.01.004-.02.003-.03.008l-6.885 3.265c-.014.006-.026.013-.039.019l-4.852 2.301c-3.201 1.518-5.347 4.532-5.6 7.867-.021.269-.031.54-.031.812v15.139c0 .552.448 1 1 1h55.867c.552 0 1-.448 1-1v-15.22zm-11.033-1.24c1.517 0 2.75 1.233 2.75 2.75s-1.233 2.75-2.75 2.75-2.75-1.233-2.75-2.75 1.233-2.75 2.75-2.75zm-9.319.616-3.078-1.354 2.588-4.363zm-14.074-1.335-2.871 1.323.317-5.59zm-1.444-6.312c2.013 1.279 4.523 2.342 7.345 2.342h.043c2.128-.008 4.177-.63 6.133-1.832l-6.588 11.084-6.934-11.594zm-4.552-24.374c-.926-3.687-.657-6.746.808-8.953 1.748-2.632 5.16-4.035 10.144-4.169 5.787-.161 8.306 1.191 9.406 2.348 1.053 1.106.98 2.215.978 2.248-.059.544.33 1.034.873 1.1.991.121 1.652.513 2.021 1.199.939 1.747.055 5.037-.825 7.338-.004-.01-.008-.02-.012-.03-.176-.564-.381-1.125-.632-1.683-.873-2.683-.897-4.702-.897-4.73-.001-.43-.277-.811-.686-.946-.104-.034-.21-.051-.315-.051-.309 0-.607.143-.799.399-4.822 6.422-13.724 2.475-14.101 2.304-.14-.064-.296-.095-.447-.09-2.479.08-4.084 1.382-5.077 2.943-.002.004-.005.006-.007.009 0 .001-.001.003-.002.004-.157.249-.303.502-.43.76zm2.186.202c.639-.964 1.631-1.793 3.185-1.909 1.467.595 9.321 3.444 14.727-1.322.214 1.262.629 2.944 1.411 4.784.327 1.075.508 2.155.508 3.228 0 5.791-5.753 15.01-10.536 15.01-2.67 0-5.563-2.727-7.641-6.163-.032-.056-.059-.113-.101-.161-1.664-2.805-2.779-6.055-2.779-8.686 0-1.597.414-3.206 1.226-4.781zm1.33 16.682c2.294 2.981 5.175 5.11 7.965 5.11 2.766 0 5.619-2.087 7.905-5.022.368 1.159.914 2.048 1.637 2.657-2.831 3.361-5.882 5.071-9.081 5.087h-.045c-4.594 0-8.433-3.484-9.987-5.126.707-.622 1.243-1.526 1.606-2.706zm34.906 29.981h-53.867v-14.139c0-.221.008-.441.025-.66.199-2.621 1.909-5.001 4.463-6.212l3.407-1.616v5.273c-.411.197-.765.502-1.005.916l-2.876 4.983c-.419.724-.419 1.589 0 2.314.418.725 1.167 1.158 2.004 1.158.552 0 1-.448 1-1s-.448-1-1-1c-.158 0-.238-.099-.272-.157-.034-.059-.079-.178 0-.314l2.876-4.983c.079-.137.205-.157.272-.157.068 0 .194.021.272.157l2.877 4.983c.079.137.034.256 0 .314-.034.059-.114.157-.272.157-.552 0-1 .448-1 1s.448 1 1 1c.837 0 1.586-.433 2.004-1.157.418-.725.418-1.59 0-2.314l-2.877-4.983c-.239-.414-.594-.719-1.004-.916v-6.221l5.549-2.632 1.613 2.698-.579 10.202c-.02.351.146.686.436.883.169.115.365.173.563.173.143 0 .285-.03.418-.092l4.578-2.11 3.601 6.021c.181.302.507.487.858.487h.001c.352 0 .678-.186.858-.489l3.591-6.041 4.868 2.142c.129.057.266.084.403.084.205 0 .409-.063.582-.187.288-.206.445-.547.415-.899l-.875-10.214 1.578-2.655 5.479 2.584v6.271c-2.14.461-3.75 2.364-3.75 4.64 0 2.619 2.131 4.75 4.75 4.75s4.75-2.131 4.75-4.75c0-2.276-1.61-4.179-3.75-4.64v-5.328l3.505 1.653c2.729 1.287 4.506 3.963 4.528 6.885v14.139z"></path><path d="m4.999 28.212h3.77v3.77c0 .552.448 1 1 1s1-.448 1-1v-3.77h3.77c.552 0 1-.448 1-1s-.448-1-1-1h-3.77v-3.769c0-.552-.448-1-1-1s-1 .448-1 1v3.769h-3.77c-.552 0-1 .448-1 1s.448 1 1 1z"></path></svg>