<svg clip-rule="evenodd" fill-rule="evenodd" height="50" image-rendering="optimizeQuality" shape-rendering="geometricPrecision" text-rendering="geometricPrecision" viewBox="0 0 173.397 173.397" width="50" xmlns="http://www.w3.org/2000/svg" id="fi_8807971"><g id="Layer_x0020_1"><g id="_288710584"><path id="_288713464" d="m53.2908 78.9032h-10.6455c-4.1267 0-7.4795-3.3547-7.4795-7.4788l.0002-14.265c0-6.4993 5.2846-11.7865 11.7845-11.7865l2.0334-.0002c6.5002 0 11.7881 5.2874 11.7881 11.787.0011.9229-.7486 1.6712-1.6711 1.6712-.9222-.0002-1.6713-.7483-1.6713-1.6712.0002-4.6568-3.7877-8.445-8.4458-8.445l-2.0333-.0004c-4.6546 0-8.4426 3.7889-8.4426 8.4454l.0014 14.2646c0 2.281 1.8541 4.1371 4.1346 4.1371l10.6469-.0004c2.2841 0 4.1388-1.8556 4.1388-4.1366.0002-.9233.7486-1.6711 1.6713-1.6711.9233-.0002 1.6711.7481 1.6711 1.6711.0011 4.1237-3.3562 7.4789-7.4812 7.4788z"></path><path id="_288713848" d="m31.6019 77.414h-9.599c-3.8085 0-6.9044-3.0979-6.9044-6.906l.0002-13.5495c0-5.5675 4.5259-10.0962 10.0961-10.0962l3.2174-.0001c5.5663 0 10.0957 4.5291 10.0957 10.0963l.0014.2037c-.0048.922-.7534 1.6687-1.6725 1.6687-.0023-.0002-.0034 0-.0034 0-.9217-.0022-1.6711-.751-1.6676-1.674l.0002-.2015c0-3.7212-3.0326-6.7506-6.7544-6.7506l-3.2158-.0002c-3.7255 0-6.7551 3.0298-6.7551 6.7539l.0012 13.5492c0 1.9655 1.5969 3.5639 3.5604 3.5639l9.5996-.0001c1.963 0 3.5639-1.5982 3.5639-3.5635.0002-.923.7485-1.671 1.671-1.671.9236 0 1.6711.7481 1.6711 1.671.0014 3.808-3.0985 6.9062-6.906 6.906z"></path><path id="_288713440" d="m16.7703 63.8095c-.0909 0-.1851-.0075-.2791-.0232-2.7179-.4605-4.794-2.8498-5.0449-5.8113l-1.2247-14.274c-.7723-9.0404 5.8865-17.587 15.4884-19.881 4.5476-1.0864 10.831-2.0895 19.2179-3.0671 36.7054-4.2777 46.8571-4.2777 83.5448 0 8.3836.9772 14.6673 1.9806 19.2175 3.0671 9.6035 2.2936 16.2586 10.841 15.4857 19.881l-1.2214 14.2742c-.2538 2.9615-2.3298 5.3513-5.0453 5.8108-.9113.1535-1.772-.4592-1.9252-1.3693-.1531-.9097.4595-1.7724 1.3682-1.9262 1.2155-.2056 2.1481-1.3568 2.2734-2.8002l1.2233-14.2744c.6328-7.4056-4.931-14.4322-12.9347-16.3451-4.4177-1.0559-10.5805-2.0363-18.8316-2.9983-36.3461-4.2381-46.4012-4.2373-82.7683 0-8.2511.9622-14.41 1.943-18.828 2.9983-8.0068 1.9127-13.5672 8.9397-12.9336 16.3451l1.2233 14.2738c.1205 1.4437 1.057 2.5953 2.2721 2.8011.9097.1536 1.5213 1.0166 1.3681 1.9267-.1388.8151-.8457 1.3921-1.6459 1.392z"></path><path id="_288713080" d="m99.6844 45.0981c-6.2386 0-11.3149 5.0764-11.3149 11.3155l.0004 17.2358c0 3.0483 2.482 5.5285 5.5282 5.5285l13.2028-.0002c3.0455 0 5.5275-2.48 5.5275-5.5283l.0012-17.2361c0-6.2388-5.0771-11.3152-11.3157-11.3152zm7.4165 37.4221h-13.2024c-4.8909 0-8.8712-3.9794-8.8712-8.8708l.0008-17.2361c0-8.082 6.5758-14.657 14.6563-14.657l1.6307-.0003c8.0793 0 14.6554 6.5754 14.6554 14.6576l.0008 17.2358c0 4.8914-3.9798 8.8711-8.8704 8.8708z"></path><path id="_288712888" d="m79.4995 82.5202h-13.1976c-4.8927 0-8.8723-3.9794-8.8723-8.8708l.0002-17.2361c0-8.082 6.5728-14.657 14.657-14.657l1.6269-.0003c8.084 0 14.6558 6.5754 14.6558 14.6576.0004.9228-.7485 1.6712-1.6708 1.6712-.9217-.0002-1.6714-.7483-1.6714-1.6712.0008-6.2391-5.076-11.3155-11.3148-11.3155h-1.625c-6.2384 0-11.3155 5.0764-11.3155 11.3155l.0011 17.2358c0 3.0483 2.4777 5.5285 5.5274 5.5285l13.199-.0002c3.0502 0 5.5278-2.48 5.5278-5.5283.0008-.9233.7485-1.6711 1.6714-1.6711.9223-.0002 1.6708.7481 1.6708 1.6711.0004 4.8914-3.9793 8.8711-8.87 8.8708z"></path><path id="_288712432" d="m130.757 78.9032h-10.6502c-4.1249 0-7.4789-3.3547-7.4789-7.4788.0012-.9233.7486-1.6711 1.6712-1.6711.9229-.0002 1.6709.7481 1.6709 1.6711.0008 2.2809 1.8558 4.137 4.1362 4.137l10.6508-.0004c2.2794 0 4.135-1.8556 4.135-4.1366l.001-14.265c0-4.6565-3.7889-8.4447-8.4471-8.4447l-2.0324-.0004c-4.6546 0-8.4435 3.7889-8.4435 8.4454.0008.9229-.7484 1.6712-1.6709 1.6712-.9226-.0002-1.6712-.7483-1.6712-1.6712.0012-6.4996 5.2847-11.7868 11.7847-11.7868l2.0345-.0002c6.4999 0 11.7872 5.2874 11.7872 11.787l.0004 14.2646c0 4.1238-3.3566 7.479-7.4777 7.4789z"></path><path id="_288712768" d="m151.395 77.414h-9.594c-3.8086 0-6.9085-3.0979-6.9085-6.906.001-.923.7484-1.671 1.6711-1.671.9228 0 1.6712.7481 1.6712 1.671.0004 1.9652 1.5978 3.5636 3.565 3.5636l9.5952-.0001c1.9678 0 3.5646-1.5982 3.5646-3.5635l.0011-13.5495c0-3.7243-3.0301-6.7537-6.7551-6.7537l-3.2166-.0002c-3.7241 0-6.7542 3.0298-6.7542 6.7539l.0004.2323c0 .9231-.7488 1.6713-1.6716 1.6713-.9213-.0001-1.6711-.7481-1.6711-1.671l.001-.2326c0-5.5675 4.5283-10.0962 10.0951-10.0962l3.2184-.0001c5.5663 0 10.0949 4.5291 10.0949 10.0963l.0006 13.5492c0 3.8083-3.099 6.9065-6.9075 6.9063z"></path><path id="_288712144" d="m97.3656 58.9815c-.0063 0-.0243.0151-.0243.0244l.0008 6.2641 6.2902.0243.025-6.2886zm6.2667 9.6549h-6.2667c-1.8549 0-3.3664-1.5099-3.3664-3.3663l.0012-6.2644c0-1.8561 1.5095-3.3663 3.3652-3.3663h6.2667c1.8565 0 3.3664 1.5102 3.3664 3.3665l.0004 6.2641c0 1.8561-1.5111 3.3667-3.3668 3.3664z"></path><path id="_288712192" d="m69.7689 58.9815c-.011 0-.0253.0151-.0253.0244l.0002 6.2641 6.2886.0243.0235-6.2886zm6.2635 9.6549h-6.2635c-1.8549 0-3.3673-1.5099-3.3673-3.3663l.0006-6.2644c0-1.8561 1.5104-3.3663 3.3659-3.3663h6.2643c1.8549 0 3.3654 1.5102 3.3654 3.3665l.0014 6.2641c0 1.8561-1.5123 3.3667-3.3668 3.3664z"></path><path id="_288711784" d="m44.8386 58.9815c-.011 0-.0257.0151-.0257.0244l.0006 6.2641 6.287.0243.0251-6.2886zm6.2619 9.6549h-6.2619c-1.8597 0-3.3679-1.5099-3.3679-3.3663l.0012-6.2644c0-1.8561 1.5062-3.3663 3.3653-3.3663h6.2633c1.8565 0 3.3666 1.5102 3.3666 3.3665l.0002 6.2641c0 1.8561-1.5113 3.3667-3.3668 3.3664z"></path><path id="_288712288" d="m122.301 58.9815c-.0111 0-.0251.0151-.0251.0244l.0014 6.2641 6.2871.0243.0233-6.2886zm6.2634 9.6549h-6.2634c-1.8597 0-3.3673-1.5099-3.3673-3.3663l.0004-6.2644c0-1.8561 1.5072-3.3663 3.3661-3.3663h6.2642c1.855 0 3.3655 1.5102 3.3655 3.3665l.0012 6.2641c0 1.8561-1.5121 3.3667-3.3667 3.3664z"></path><path id="_288711664" d="m143.465 58.9815c-.0077 0-.025.0151-.025.0244v6.2641l6.2917.0243.0235-6.2886zm6.2667 9.6549h-6.2667c-1.8565 0-3.3674-1.5099-3.3674-3.3663l.0008-6.2644c0-1.8561 1.5101-3.3663 3.3659-3.3663h6.2674c1.8549 0 3.3658 1.5102 3.3658 3.3665l.0008 6.2641c0 1.8561-1.5117 3.3667-3.3666 3.3664z"></path><path id="_288712336" d="m23.6714 58.9815c-.0109 0-.0258.0151-.0258.0244l.0008 6.2641 6.2869.0243.0251-6.2886zm6.2619 9.6549h-6.2619c-1.8565 0-3.3679-1.5099-3.3679-3.3663l.0012-6.2644c0-1.8561 1.5096-3.3663 3.3654-3.3663h6.2632c1.8565 0 3.3663 1.5102 3.3663 3.3665l.0006 6.2641c0 1.8561-1.5115 3.3667-3.3669 3.3664z"></path><path id="_288711928" d="m21.9747 63.8091h-5.2044c-.9228 0-1.6718-.7479-1.6718-1.6708.0002-.9232.7484-1.6712 1.671-1.6712h5.2052c.9228 0 1.6709.7481 1.6709 1.6712.0008.9228-.7487 1.671-1.6709 1.6708zm21.1672 0h-11.5134c-.9212 0-1.6711-.7479-1.6711-1.6708.001-.9232.7486-1.6712 1.6711-1.6712h11.5134c.9228 0 1.671.7481 1.671 1.6712.0006.9228-.7484 1.671-1.671 1.6708zm24.9318 0h-15.2765c-.9227 0-1.6724-.7479-1.6724-1.6708.0008-.9232.7485-1.6712 1.671-1.6712h15.2779c.9229 0 1.6699.7481 1.6699 1.6712.0002.9228-.7484 1.671-1.6699 1.6708zm27.5969 0h-17.9431c-.9227 0-1.672-.7479-1.672-1.6708.0004-.9232.7485-1.6712 1.6712-1.6712h17.9439c.9227 0 1.6707.7481 1.6707 1.6712.0008.9228-.7484 1.671-1.6707 1.6708zm24.9349 0h-15.2766c-.9257 0-1.6722-.7479-1.6722-1.6708.0006-.9232.7449-1.6712 1.671-1.6712h15.2778c.9227 0 1.6702.7481 1.6702 1.6712.0014.9228-.7487 1.671-1.6702 1.6708zm21.1639 0h-11.5101c-.9229 0-1.6718-.7479-1.6718-1.6708 0-.9232.7485-1.6712 1.671-1.6712h11.5109c.9229 0 1.6702.7481 1.6702 1.6712 0 .9228-.7487 1.671-1.6702 1.6708zm14.8615 0h-5.2044c-.926 0-1.6717-.7479-1.6717-1.6708 0-.9232.7453-1.6712 1.6713-1.6712h5.2048c.9227 0 1.671.7481 1.671 1.6712.0006.9228-.7485 1.671-1.671 1.6708z"></path><path id="_288711856" d="m48.9839 128.025h-2.0334c-6.4986 0-11.7847-5.2875-11.7847-11.7871l.0002-14.2649c0-4.1242 3.3525-7.479 7.4779-7.479l10.6469-.0002c4.125 0 7.4812 3.3553 7.4812 7.4794.0011.923-.7486 1.6712-1.6711 1.6712-.9222-.0001-1.6713-.7482-1.6713-1.6712.0002-2.2812-1.8557-4.1369-4.1392-4.1369h-10.6451c-2.2811 0-4.1374 1.8559-4.1374 4.1369l.0014 14.2647c0 4.6565 3.7866 8.4447 8.4412 8.4447h2.0334c4.6594 0 8.4457-3.7882 8.4457-8.4447.0002-.9232.7486-1.6711 1.6713-1.6711.9233-.0002 1.6711.7482 1.6711 1.6711.0011 6.4993-5.2883 11.7872-11.7881 11.7871z"></path><path id="_288711832" d="m28.4122 126.535h-3.2164c-5.571 0-10.0973-4.5289-10.0973-10.0961l.0002-13.5495c0-3.8086 3.0949-6.9062 6.9036-6.9062l9.5996-.0001c3.8085 0 6.906 3.0979 6.906 6.9063.0014.9227-.7485 1.6711-1.6711 1.6711-.9219-.0004-1.671-.7481-1.671-1.6711.0002-1.9654-1.6015-3.5639-3.5651-3.5639l-9.5978-.0003c-1.963 0-3.5622 1.5989-3.5622 3.5642l.0012 13.5492c0 3.7244 3.0276 6.754 6.7529 6.754l3.2174-.0001c3.7224 0 6.7536-3.0294 6.7536-6.7536l.0002-.1981c-.0031-.9235.7447-1.6725 1.6674-1.6742.0011-.0002 0 0 .0034 0 .9205-.0002 1.6675.7464 1.6711 1.6682l.0014.2011c0 5.5702-4.5308 10.0993-10.0971 10.0991z"></path><path id="_288712264" d="m86.7062 155.853c-11.7125 0-23.4241-1.0685-41.7783-3.2096-8.3832-.9749-14.6711-1.9775-19.2179-3.0672-9.6009-2.2928-16.2619-10.8395-15.4892-19.8795l1.2259-14.2745c.2507-2.9611 2.3254-5.3506 5.0445-5.8105.9089-.1546 1.7719.4588 1.925 1.3685.1542.9099-.4594 1.7729-1.3681 1.9267-1.2147.2056-2.1516 1.3571-2.2733 2.8002l-1.2209 14.2744c-.6345 7.4056 4.9252 14.4325 12.9324 16.3455 4.4184 1.0555 10.5767 2.0363 18.828 2.9978 36.3675 4.2378 46.4218 4.2378 82.7683.0004 8.2554-.9624 14.4135-1.943 18.8316-2.9982 8.0043-1.9133 13.5669-8.9398 12.9335-16.3452l-1.2209-14.2745c-.1254-1.4433-1.0595-2.5946-2.2746-2.8001-.9073-.1538-1.5213-1.0165-1.3682-1.9262.154-.9102 1.0131-1.5239 1.9252-1.3693 2.7155.4595 4.7907 2.849 5.0445 5.8106l1.2226 14.2741c.7725 9.0401-5.8838 17.5873-15.4861 19.8798-4.5467 1.086-10.8343 2.0924-19.2175 3.0672-18.3435 2.1411-30.0557 3.2099-41.7665 3.2096z"></path><path id="_288711472" d="m93.8985 94.2189c-3.0455 0-5.529 2.4803-5.529 5.5289l.0004 17.2354c0 6.2392 5.0759 11.3159 11.3145 11.3159l1.6307-.0003c6.2386 0 11.3133-5.0761 11.3133-11.3152l.0012-17.2361c0-3.0486-2.4836-5.5285-5.5299-5.5285zm7.4166 37.422h-1.6307c-8.0794 0-14.6571-6.5751-14.6571-14.6573l.0008-17.2361c0-4.8914 3.9787-8.8708 8.87-8.8708l13.2028-.0004c4.891 0 8.8696 3.9801 8.8696 8.8715l.0008 17.2354c0 8.0824-6.5771 14.6577-14.6562 14.6577z"></path><path id="_288711352" d="m73.7137 131.641h-1.6262c-8.0839 0-14.6579-6.5751-14.6579-14.6573l.0002-17.2361c0-4.8914 3.9792-8.8708 8.8707-8.8708l13.199-.0004c4.8911 0 8.87 3.9801 8.87 8.8715.0004.923-.7485 1.6712-1.6708 1.6712-.9217-.0002-1.6714-.7482-1.6714-1.6712.0008-3.0489-2.4788-5.5288-5.5284-5.5288l-13.197-.0001c-3.0503 0-5.5299 2.4803-5.5299 5.5289l.0011 17.2354c0 6.2392 5.0748 11.3159 11.3137 11.3159l1.6269-.0003c6.2384 0 11.3136-5.0761 11.3136-11.3152.0008-.9231.7485-1.6711 1.6714-1.6711.9223-.0001 1.6708.7482 1.6708 1.6711.0004 8.082-6.573 14.6573-14.6558 14.6573z"></path><path id="_288711256" d="m126.448 128.025h-2.0336c-6.5001 0-11.7856-5.2875-11.7856-11.7871.0012-.9232.7486-1.6711 1.6712-1.6711.9229-.0002 1.6709.7482 1.6709 1.6711.0008 4.6565 3.7881 8.4447 8.4426 8.4447h2.0345c4.6576 0 8.4449-3.7882 8.4449-8.4447l.001-14.2649c0-2.281-1.8568-4.1367-4.137-4.1367h-10.6492c-2.281 0-4.1368 1.8559-4.1368 4.1369.0008.923-.7484 1.6712-1.6709 1.6712-.9226-.0001-1.6712-.7482-1.6712-1.6712.0012-4.1244 3.3528-7.4792 7.4783-7.4792l10.6508-.0002c4.1219 0 7.4773 3.3553 7.4773 7.4794l.0004 14.2647c0 6.4993-5.2888 11.7872-11.7876 11.7871z"></path><path id="_288711208" d="m148.207 126.535h-3.218c-5.5664 0-10.0965-4.5289-10.0965-10.0961l.001-.2326c0-.9231.7474-1.671 1.6701-1.671.9228-.0001 1.6712.7481 1.6712 1.671l.0004.2323c0 3.7244 3.0285 6.754 6.7534 6.754l3.2184-.0001c3.7238 0 6.7526-3.0294 6.7526-6.7536l.0011-13.5495c0-1.9654-1.5991-3.5639-3.5661-3.5639l-9.5936-.0003c-1.9679 0-3.5662 1.5989-3.5662 3.5642.0004.9227-.7484 1.6711-1.6712 1.6711-.9213-.0004-1.6711-.7481-1.6711-1.6711.001-3.8086 3.0984-6.9062 6.9073-6.9062l9.5952-.0001c3.8085 0 6.9069 3.0979 6.9069 6.9063l.0006 13.5492c0 5.5675-4.53 10.0966-10.0969 10.0966z"></path><path id="_288711520" d="m97.3656 108.103-.0235 6.2886.0235.0242h6.2667l.025-6.2885zm6.2667 9.6549h-6.2667c-1.8549 0-3.3664-1.5099-3.3664-3.3662l.0012-6.2644c0-1.8565 1.5095-3.3664 3.3652-3.3664h6.2667c1.8565 0 3.3664 1.5102 3.3664 3.3666l.0004 6.2641c0 1.8561-1.5111 3.3666-3.3668 3.3663z"></path><path id="_288711064" d="m69.7689 108.103-.0251 6.2886.0251.0242h6.2635l.0235-6.2885zm6.2635 9.6549h-6.2635c-1.8549 0-3.3673-1.5099-3.3673-3.3662l.0006-6.2644c0-1.8565 1.5104-3.3664 3.3659-3.3664h6.2643c1.8549 0 3.3654 1.5102 3.3654 3.3666l.0014 6.2641c0 1.8561-1.5123 3.3666-3.3668 3.3663z"></path><path id="_288710920" d="m44.8386 108.103-.0251 6.2886.0251.0242h6.2619l.0251-6.2885zm6.2619 9.6549h-6.2619c-1.8597 0-3.3679-1.5099-3.3679-3.3662l.0012-6.2644c0-1.8565 1.5062-3.3664 3.3653-3.3664h6.2633c1.8565 0 3.3666 1.5102 3.3666 3.3666l.0002 6.2641c0 1.8561-1.5113 3.3666-3.3668 3.3663z"></path><path id="_288710824" d="m122.301 108.103-.0237 6.2886.0237.0242h6.2634l.0233-6.2885zm6.2634 9.6549h-6.2634c-1.8597 0-3.3673-1.5099-3.3673-3.3662l.0004-6.2644c0-1.8565 1.5072-3.3664 3.3661-3.3664h6.2642c1.855 0 3.3655 1.5102 3.3655 3.3666l.0012 6.2641c0 1.8561-1.5121 3.3666-3.3667 3.3663z"></path><path id="_288710704" d="m143.465 108.103-.025 6.2886.025.0242h6.2667l.0235-6.2885zm6.2667 9.6549h-6.2667c-1.8565 0-3.3674-1.5099-3.3674-3.3662l.0008-6.2644c0-1.8565 1.5101-3.3664 3.3659-3.3664h6.2674c1.8549 0 3.3658 1.5102 3.3658 3.3666l.0008 6.2641c0 1.8561-1.5117 3.3666-3.3666 3.3663z"></path><path id="_288710296" d="m23.6714 108.103-.025 6.2886.025.0242h6.2619l.0251-6.2885zm6.2619 9.6549h-6.2619c-1.8565 0-3.3679-1.5099-3.3679-3.3662l.0012-6.2644c0-1.8565 1.5096-3.3664 3.3654-3.3664h6.2632c1.8565 0 3.3663 1.5102 3.3663 3.3666l.0006 6.2641c0 1.8561-1.5115 3.3666-3.3669 3.3663z"></path><path id="_288710200" d="m21.9747 112.93h-5.2044c-.9228 0-1.6718-.7479-1.6718-1.671.0002-.923.7484-1.671 1.671-1.671l5.2052-.0001c.9228 0 1.6709.7483 1.6709 1.6711.0008.9229-.7487 1.6712-1.6709 1.671zm21.1672 0h-11.5134c-.9212 0-1.6711-.7479-1.6711-1.671.001-.923.7486-1.671 1.6711-1.671l11.5134-.0001c.9228 0 1.671.7483 1.671 1.6711.0006.9229-.7484 1.6712-1.671 1.671zm24.9318 0h-15.2765c-.9227 0-1.6724-.7479-1.6724-1.671.0008-.923.7485-1.671 1.671-1.671l15.2779-.0001c.9229 0 1.6699.7483 1.6699 1.6711.0002.9229-.7484 1.6712-1.6699 1.671zm27.5969 0h-17.9431c-.9227 0-1.672-.7479-1.672-1.671.0004-.923.7485-1.671 1.6712-1.671l17.9439-.0001c.9227 0 1.6707.7483 1.6707 1.6711.0008.9229-.7484 1.6712-1.6707 1.671zm24.9349 0h-15.2766c-.9257 0-1.6722-.7479-1.6722-1.671.0006-.923.7449-1.671 1.671-1.671l15.2778-.0001c.9227 0 1.6702.7483 1.6702 1.6711.0014.9229-.7487 1.6712-1.6702 1.671zm21.1639 0h-11.5101c-.9229 0-1.6718-.7479-1.6718-1.671 0-.923.7485-1.671 1.671-1.671l11.5109-.0001c.9229 0 1.6702.7483 1.6702 1.6711 0 .9229-.7487 1.6712-1.6702 1.671zm14.8615 0h-5.2044c-.926 0-1.6717-.7479-1.6717-1.671 0-.923.7453-1.671 1.6713-1.671l5.2048-.0001c.9227 0 1.671.7483 1.671 1.6711.0006.9229-.7485 1.6712-1.671 1.671z"></path></g></g></svg>