<svg id="fi_10747679" viewBox="0 0 48 48" xmlns="http://www.w3.org/2000/svg" data-name="Layer 11"><path d="m32.18 22.88c.09.02.18.04.27.04.44 0 .84-.29.96-.74.36-1.32.56-2.6.59-3.83.02-1.08-.12-3.8-1.96-5.81-.37-.41-1-.43-1.41-.06s-.43 1.01-.06 1.41c1.39 1.52 1.45 3.76 1.44 4.41-.02 1.06-.2 2.19-.52 3.35-.15.53.17 1.08.7 1.23z"></path><path d="m28.66 35.87c-.55 0-1.02.41-1.04.96-.07 1.59-.13 3.08-.37 4.55-.19 1.14-.93 2.12-1.99 2.59-.08.04-.14.04-.21 0-.12-.06-.27-.24-.33-.55-.08-.45-.17-.97-.27-1.53-.83-4.81-2.08-12.07-6.45-12.07s-5.62 7.22-6.44 12c-.1.56-.19 1.08-.27 1.53-.06.33-.23.53-.36.59-.08.04-.16.04-.3-.02-.96-.42-1.67-1.37-1.86-2.47-.25-1.49-.31-3.02-.38-4.64-.14-3.44-.3-7.34-2.45-11.56-.84-1.65-1.86-4.2-1.93-6.94-.1-4.39 2.98-8.19 6.72-8.3.3 0 .61 0 .92.02.54.05 1.03-.36 1.08-.92.04-.55-.37-1.03-.92-1.08-.38-.03-.76-.04-1.14-.03-4.82.13-8.79 4.87-8.67 10.34.07 3.12 1.21 5.97 2.14 7.8 1.95 3.83 2.09 7.34 2.23 10.74.07 1.69.14 3.28.41 4.89.3 1.78 1.43 3.27 3.07 3.99.66.29 1.37.27 1.99-.06.72-.38 1.23-1.1 1.4-1.99.09-.46.18-.99.28-1.56.58-3.36 1.79-10.34 4.47-10.34s3.86 6.77 4.48 10.41c.1.57.19 1.1.28 1.56.16.86.67 1.58 1.37 1.95.32.17.66.25 1.02.25.32 0 .65-.07.98-.22 1.64-.73 2.8-2.25 3.1-4.08.26-1.59.33-3.22.39-4.79.02-.55-.41-1.02-.96-1.04z"></path><path d="m43 3h-15c-1.86 0-3.41 1.28-3.86 3h-2.14v-1c0-1.65-1.35-3-3-3h-2c-1.65 0-3 1.35-3 3v5c0 1.86 1.28 3.41 3 3.86v2.14h-2c-1.65 0-3 1.35-3 3s1.35 3 3 3h6c1.65 0 3-1.35 3-3s-1.35-3-3-3h-2v-2.14c1.72-.45 3-2 3-3.86v-2h2.14c.45 1.72 2 3 3.86 3h15c1.65 0 3-1.35 3-3v-2c0-1.65-1.35-3-3-3zm-22 15c.55 0 1 .45 1 1s-.45 1-1 1h-6c-.55 0-1-.45-1-1s.45-1 1-1zm8-9h-1c-1.1 0-2-.9-2-2s.9-2 2-2h1z"></path><path d="m35.93 28.17c-2.59.87-4.32 3.38-4.21 6.11.02.5-.33.93-.82 1.02-.06.01-.12.02-.18.02-.43 0-.81-.27-.95-.68-.87-2.59-3.39-4.31-6.11-4.22-.52.03-.94-.33-1.03-.82s.2-.97.67-1.13c2.59-.87 4.32-3.38 4.22-6.11-.02-.5.33-.93.82-1.02.48-.09.97.19 1.12.66.87 2.59 3.37 4.32 6.12 4.22.5-.03.93.33 1.02.82s-.19.97-.67 1.13z"></path><path d="m44.95 36.85c-.16.48-.65.76-1.13.67-1.72-.31-3.48.56-4.26 2.13-.17.35-.52.56-.89.56-.11 0-.21-.02-.32-.06-.47-.15-.76-.63-.67-1.12.32-1.73-.56-3.48-2.13-4.26-.44-.23-.66-.74-.5-1.21.16-.48.64-.76 1.13-.67 1.73.31 3.48-.56 4.26-2.13.22-.45.74-.66 1.21-.5.47.15.76.63.67 1.12-.32 1.73.56 3.48 2.13 4.26.44.23.66.74.5 1.21z"></path></svg>