
<svg xmlns="http://www.w3.org/2000/svg" viewBox="0 0 64 64" width="50" height="50" id="fi_1492615"><title>11 Tooth Implant</title><g id="_11_Tooth_Implant" data-name="11 Tooth Implant"><path d="M24.026,21.229A1,1,0,0,0,25,22h3V24.9l-1.1.11a1,1,0,0,0,.1,2c.033,0,.067,0,.1,0l.9-.09V28.9l-1.1.11a1,1,0,0,0,.1,2c.033,0,.067,0,.1,0l.9-.09v1.539a2.035,2.035,0,0,0,.907,1.7l1.963,1.308a2.028,2.028,0,0,0,2.26,0l1.963-1.308a2.035,2.035,0,0,0,.907-1.7V30.105L37.1,30a1,1,0,0,0-.2-1.99l-.9.09v-1.99L37.1,26a1,1,0,0,0-.2-1.99l-.9.09V22h3a1,1,0,0,0,.974-.771L41.6,14.314A6.927,6.927,0,0,0,42,12c0-3.381-2.411-7-6-7a4.867,4.867,0,0,0-2.22.533.886.886,0,0,0-.1.054l-1.4.852-1.709-.9A6.364,6.364,0,0,0,28,5c-3.589,0-6,3.619-6,7a6.927,6.927,0,0,0,.4,2.314ZM34,32.444a.037.037,0,0,1-.017.032l-2,1.308L30,32.444V30.705l4-.4ZM34,28.3l-4,.4v-1.99l4-.4Zm0-4-4,.4V22h4ZM28,7a4.365,4.365,0,0,1,1.682.324l2.17,1.15h0l2.68,1.41a1,1,0,0,0,.932-1.77l-1.122-.59.327-.2A2.831,2.831,0,0,1,36,7c2.357,0,4,2.635,4,5a4.92,4.92,0,0,1-.3,1.688c-.013.038-.024.075-.033.113L38.208,20H25.792l-1.459-6.2c-.009-.038-.02-.075-.033-.113A4.92,4.92,0,0,1,24,12C24,9.635,25.643,7,28,7Z"></path><path d="M60.313,39.553a1.988,1.988,0,0,0-1.552-.5,7.3,7.3,0,0,0-1.379.3c.012-.026.017-.056.03-.082a.994.994,0,0,0,.063-.154l2.1-6.746A6.923,6.923,0,0,0,60,30c0-3.381-2.411-7-6-7a4.9,4.9,0,0,0-2.24.542l-1.643.806-1.542-.813A6.364,6.364,0,0,0,46,23c-3.589,0-6,3.619-6,7a6.835,6.835,0,0,0,.405,2.328l2.12,6.79a.994.994,0,0,0,.063.154c.035.07.05.147.08.219a9.9,9.9,0,0,0-5.34.283A2.043,2.043,0,0,0,36,41.67l-.024,8.782-4,2.37L28,50.409V41.67a2.047,2.047,0,0,0-1.344-1.9,9.86,9.86,0,0,0-5.324-.278c.03-.072.045-.149.08-.219a.994.994,0,0,0,.063-.154l2.1-6.746A6.923,6.923,0,0,0,24,30c0-3.381-2.411-7-6-7a4.9,4.9,0,0,0-2.24.542l-1.643.806-1.542-.813A6.364,6.364,0,0,0,10,23c-3.589,0-6,3.619-6,7a6.835,6.835,0,0,0,.405,2.328l2.12,6.79a.994.994,0,0,0,.063.154c.013.026.018.056.03.082a7.193,7.193,0,0,0-1.373-.3,1.987,1.987,0,0,0-1.557.5A2.057,2.057,0,0,0,3,41.09V54a5.006,5.006,0,0,0,5,5H56a5.006,5.006,0,0,0,5-5V41.09A2.059,2.059,0,0,0,60.313,39.553ZM42.3,31.688A4.92,4.92,0,0,1,42,30c0-2.365,1.643-5,4-5a4.354,4.354,0,0,1,1.683.325l1.95,1.029,2.9,1.531a1,1,0,0,0,.934-1.77L52.305,25.5l.315-.154A2.89,2.89,0,0,1,54,25c2.357,0,4,2.635,4,5a5.036,5.036,0,0,1-.314,1.732l-2.1,6.714A5.856,5.856,0,0,0,55,41v6a4.234,4.234,0,0,1-1,2,2.415,2.415,0,0,1-1-2V42c0-1.373-1.168-4-3-4s-3,2.627-3,4v5.2A3.2,3.2,0,0,1,46,49a2.334,2.334,0,0,1-1-2V41a5.856,5.856,0,0,0-.589-2.554Zm-36,0A4.92,4.92,0,0,1,6,30c0-2.365,1.643-5,4-5a4.354,4.354,0,0,1,1.683.325l1.95,1.029,2.9,1.531a1,1,0,0,0,.934-1.77L16.305,25.5l.315-.154A2.89,2.89,0,0,1,18,25c2.357,0,4,2.635,4,5a5.036,5.036,0,0,1-.314,1.732l-2.1,6.714A5.856,5.856,0,0,0,19,41v6a4.234,4.234,0,0,1-1,2,2.415,2.415,0,0,1-1-2V42c0-1.373-1.168-4-3-4s-3,2.627-3,4v5.2A3.2,3.2,0,0,1,10,49a2.334,2.334,0,0,1-1-2V41a5.856,5.856,0,0,0-.589-2.554ZM59,54a3,3,0,0,1-3,3H8a3,3,0,0,1-3-3l.021-12.956A6.356,6.356,0,0,1,7,41.633V47c0,1.85,1.311,4,3,4s3-2.532,3-3.8V42a3,3,0,0,1,.979-2A2.846,2.846,0,0,1,15,42v5c0,1.85,1.311,4,3,4,1.821,0,3-2.972,3-4V41.658a7.756,7.756,0,0,1,5,.012v8.739a2.059,2.059,0,0,0,1,1.758l3.949,2.369a2.042,2.042,0,0,0,2.111,0L37,52.168a2.061,2.061,0,0,0,1-1.759l.017-8.758A7.817,7.817,0,0,1,43,41.658V47c0,1.85,1.311,4,3,4s3-2.532,3-3.8V42a3,3,0,0,1,.979-2A2.846,2.846,0,0,1,51,42v5c0,1.85,1.311,4,3,4,1.821,0,3-2.972,3-4V41.633a6.446,6.446,0,0,1,1.976-.591A.054.054,0,0,1,59,41.09Z"></path></g></svg>