<svg id="fi_3482459" enable-background="new 0 0 64 64" height="50" viewBox="0 0 64 64" width="50" xmlns="http://www.w3.org/2000/svg"><path d="m16.8 48.1-.7-1.8c-.2-.5-.8-.8-1.3-.6s-.8.8-.6 1.3l.7 1.8c.1.4.6.9 1.3.6.5-.2.8-.8.6-1.3z"></path><path d="m52 33h-7.4c-1.5-2.5-4.1-4-7-4h-11.1c-2.9 0-5.5 1.5-7 4h-7.5c-.6 0-1.1.5-1 1 .1 3.1.6 6.1 1.7 9 .2.5.8.8 1.3.6s.8-.8.6-1.3c-.9-2.4-1.4-4.8-1.6-7.3h38c-.1 2.3-.5 4.6-1.1 6.7l-5.5 17.5c-.6 1.9-2.3 1.8-2.4 1.8 0 0-2.2.3-2.5-1.9l-2.3-9.3c-.5-2-2.3-3.4-4.4-3.4s-3.9 1.4-4.4 3.4l-2.3 9.3c-.3 1.1-1.3 1.9-2.5 1.9 0 0-2 .1-2.6-1.6l-2.7-7.2c-.2-.5-.8-.8-1.3-.6s-.8.8-.6 1.3l2.7 7.2c.8 2.4 3.1 3 4.3 3 .1 0 3.6.3 4.6-3.4l2.3-9.3c.3-1.1 1.3-1.9 2.4-1.9 1.2 0 2.1.8 2.4 1.9l2.3 9.3c.5 2 2.3 3.4 4.3 3.4 1.2.1 3.7-.4 4.5-3.2l5.4-17.5c.8-2.7 1.3-5.5 1.2-8.4.2-.6-.3-1-.8-1zm-30.1 0c1.2-1.3 2.8-2 4.6-2h11.1c1.7 0 3.4.8 4.6 2z"></path><path d="m12 17h32c.6 0 1-.4 1-1s-.4-1-1-1h-31c.1-3.3.9-9.2 3.5-11.3 1.9-1.5 3.9-.4 4.5 0-1 .5-1.8 1.1-2.4 1.6-.4.4-.4 1 0 1.4s1 .4 1.4 0c.1-.1 1.4-1.2 3.2-1.8 1.8-.5 4.1-.5 6.5 1.6 3.8 3.5 7.5 2.3 9.8 0 0 0 2.4-2.9 4.2-3.5 3.6-1.2 5.3 3 5.3 3.1 1.2 2.9 1.8 5.9 2 8.9h-3.3c-.6 0-1 .4-1 1s.4 1 1 1h4.4c.5 0 1-.4 1-1 0-3.6-.8-7.2-2.2-10.5-.2-.2-1.9-4.5-6-4.5-1.5 0-3 .6-4.1 1.6-2.5-1.6-6.3-1.6-6.3-1.6-3.6 0-6.2 1.5-7.1 2.2-1.5-.4-2.9-.4-4.2-.1-1.2-1.1-4.4-3.7-8.1-.5-3.4 2.8-4.2 10.1-4.1 13.4 0 .6.5 1 1 1zm22.6-14c2.1 0 3.7.6 4.7 1 0 0-2.3 2.8-4.9 2.8-2.2 0-4.4-2.4-4.9-2.7 1.2-.5 2.9-1.1 5.1-1.1z"></path><path d="m47.8 13c.5-.1.9-.6.8-1.1-.4-2.2-1-4.3-1.8-6.4-.2-.5-.8-.8-1.3-.5-.5.2-.8.8-.5 1.3.8 1.9 1.4 3.9 1.7 5.9.1.5.6.9 1.1.8z"></path><path d="m32 19c-.6 0-1 .4-1 1v3.6s-.9-1-1.7-.3c-.4.4-.4 1 0 1.4l2 2c.7.6 1.4 0 1.4 0l2-2c.4-.4.4-1 0-1.4-.8-.8-1.7.3-1.7.3v-3.6c0-.6-.4-1-1-1z"></path></svg>