<svg height="50" fill="#fff" viewBox="0 0 128 128" width="50" xmlns="http://www.w3.org/2000/svg" id="fi_2441077"><g id="Solid"><path d="m102.373 38.05c-3.886-6.669-11.026-9.418-18.258-9.429a4.355 4.355 0 0 1 -.669 2.209 1.5 1.5 0 0 1 -2.571-1.547 1.677 1.677 0 0 0 .218-.51 29.753 29.753 0 0 0 -9.993 2.807 16.254 16.254 0 0 1 -3.892 1.335 2 2 0 0 0 -.5 3.778 2.764 2.764 0 0 0 .436.147 1.593 1.593 0 0 1 1.363 1.514 1.505 1.505 0 0 1 -1.5 1.476h-.15c-3.11-.31-4.577-2.373-6-4.37a11.149 11.149 0 0 0 -4.13-3.88 27.91 27.91 0 0 0 -10.017-2.924 4.342 4.342 0 0 0 .926 2.694 1.5 1.5 0 0 1 -2.39 1.814 7.375 7.375 0 0 1 -1.544-4.62c0-.01 0-.02 0-.03-7.223.04-14.383 2.884-18.259 9.536-8.31 14.27 0 35.02 8.25 49.68s5.37 39.73 17.09 37.76c8.56-1.45 3.97-41.43 13.12-41.43s4.57 39.98 13.13 41.43c11.72 1.97 8.85-23.11 17.09-37.76s16.57-35.41 8.25-49.68zm-51.353.582a13.679 13.679 0 0 0 -2.591-2.489 1.5 1.5 0 1 1 1.876-2.343 16.389 16.389 0 0 1 3.136 3.059 1.5 1.5 0 0 1 -2.421 1.772zm6.464 6.494a1.5 1.5 0 0 1 -2.049.549 6.255 6.255 0 0 1 -3.235-3.924 1.5 1.5 0 0 1 2.928-.656 3.534 3.534 0 0 0 1.8 1.982 1.5 1.5 0 0 1 .556 2.049zm6.392 2.721h-.1a25.685 25.685 0 0 1 -4.2-.611 1.5 1.5 0 1 1 .688-2.92 22.56 22.56 0 0 0 3.709.537 1.5 1.5 0 0 1 -.1 3zm8.337-.746a22.729 22.729 0 0 1 -4.22.715c-.041 0-.082 0-.122 0a1.5 1.5 0 0 1 -.119-2.995 19.687 19.687 0 0 0 3.66-.616 1.5 1.5 0 1 1 .8 2.891zm4.148-2a1.5 1.5 0 0 1 -1.922-2.3 1.791 1.791 0 0 0 .811-1.44c-.006-.221-.008-.391-.008-.56 0-.154 0-.3.007-.453a1.465 1.465 0 0 1 1.543-1.456 1.5 1.5 0 0 1 1.456 1.543q-.006.18-.006.366c0 .138 0 .278.007.421v.139a4.821 4.821 0 0 1 -1.888 3.739zm4.348-11.042a10.035 10.035 0 0 0 -1.82 2.961 1.5 1.5 0 1 1 -2.8-1.076 13.2 13.2 0 0 1 2.332-3.825 1.5 1.5 0 1 1 2.288 1.94z"></path><path d="m127.078 5.667a1.5 1.5 0 0 0 -1.5-1.5h-28.911a6.669 6.669 0 0 0 -6.407 4.867l-21.192-3.911a2.5 2.5 0 0 0 -1.78-.752h-6.476a2.515 2.515 0 0 0 -2.5 2.81l1.064 9.025a2.67 2.67 0 0 0 2.651 2.357h.473v7.625a1.5 1.5 0 1 0 3 0v-7.625h.57a2.669 2.669 0 0 0 2.651-2.357l.935-7.925 20.472 3.778c0 .029.006.057.01.085a6.9 6.9 0 0 0 6.815 5.356h28.625a1.5 1.5 0 0 0 1.5-1.5v-10.33zm-21.078 8.833h-9.333a3.673 3.673 0 0 1 -3.6-4.387 3.77 3.77 0 0 1 3.75-2.946h9.183z"></path></g></svg>