<svg id="fi_12154491" enable-background="new 0 0 50 50" viewBox="0 0 512 512" xmlns="http://www.w3.org/2000/svg"><path d="m500.487 441.581c-42.274-35.359-97.527-60.362-159.992-72.455.405-19.511 3.583-37.294 10.021-56.44 9.449-28.098 13.704-51.372 12.673-69.264l131.541-131.541c11.038-11.038 11.038-28.997 0-40.035-5.33-5.331-12.439-8.266-20.018-8.266s-14.688 2.936-20.017 8.266l-126.161 126.162c-27.16-5.873-61.958 8.479-72.536 13.297-13.358-6.088-65.13-27.299-91.967-3.931-9.423 8.203-14.569 20.761-15.298 37.324-.776 17.653 3.509 40.521 12.737 67.971 6.442 19.162 9.624 36.95 10.027 56.457-62.465 12.096-117.734 37.106-159.993 72.454-2.965 2.48-3.358 6.895-.878 9.86 1.385 1.655 3.371 2.509 5.373 2.509 1.584 0 3.177-.535 4.487-1.631 39.821-33.308 91.891-57.069 150.891-68.91-.397 19.719-.054 46.377 3.335 68.862 4.517 29.971 13.396 46.475 27.146 50.455 1.215.351 2.502.367 3.727.046 3.008-.791 29.326-9.45 27.27-69.102-.667-19.335 2.964-33.812 10.5-41.866 5.642-6.028 11.735-6.619 12.641-6.674.905.055 6.999.646 12.64 6.674 7.537 8.054 11.168 22.531 10.501 41.866-2.056 59.652 24.263 68.311 27.271 69.102.584.153 1.183.23 1.78.23.655 0 1.311-.092 1.946-.276 13.749-3.98 22.628-20.48 27.145-50.445 3.391-22.487 3.733-49.15 3.336-68.868 58.999 11.837 111.056 35.586 150.891 68.905 1.311 1.096 2.903 1.631 4.487 1.631 2.001 0 3.988-.854 5.373-2.509 2.479-2.963 2.086-7.379-.879-9.858zm-163.64-204.061-21.008 21.008c-1.077 1.077-1.773 2.476-1.983 3.984-.284 2.035-.424 5.379-.622 10.644-.087 2.322-.207 5.522-.341 7.486l-31.172 31.171c-10.473 10.475-31.029 11.845-42.549 7.8l89.884-89.885zm127.748-155.775c2.686-2.686 6.278-4.166 10.117-4.166s7.433 1.479 10.119 4.166c2.686 2.686 4.164 6.279 4.164 10.118s-1.479 7.432-4.164 10.118l-109.267 109.267-20.236-20.236zm-119.166 119.166 20.236 20.236-12.697 12.696-20.235-20.236zm-37.044 287.401c-4.646-3.105-16.608-14.959-15.257-54.159.82-23.802-4.125-41.42-14.7-52.367-10.01-10.361-21.19-10.66-22.433-10.66s-12.423.299-22.433 10.66c-10.575 10.946-15.521 28.565-14.7 52.367 1.353 39.2-10.609 51.054-15.256 54.159-10.357-6.368-20.012-37.638-18.138-108.686.667-25.34-2.642-47.366-10.729-71.418-15.58-46.343-16.107-77.557-1.526-90.266 19.315-16.837 64.054-.389 79.66 7.369 1.965.979 4.279.979 6.244 0 .365-.182 31.64-15.585 57.409-14.725-1.247 2.603-.8 5.814 1.357 7.971l1.273 1.273-96.172 96.172c-1.313 1.313-2.051 3.093-2.051 4.95s.737 3.637 2.051 4.95c6.331 6.332 17.875 9.776 30.211 9.776 13.92 0 28.849-4.388 38.424-13.964l32.785-32.785c2.334-2.335 2.398-4.055 2.818-15.247.088-2.342.19-5.073.312-7.051l19.211-19.212 1.273 1.274c.397.397.84.734 1.312 1.021-.13 15.352-4.169 34.967-12.085 58.51-8.083 24.04-11.39 46.066-10.722 71.421 1.872 71.035-7.781 102.3-18.138 108.667zm-282-432.005c1.484 0 2.994-.192 4.494-.594l6.597-1.768 8.61 32.135-18.22 4.882c-4.475 1.199-8.219 4.077-10.545 8.105-2.326 4.029-2.946 8.711-1.748 13.186 2.079 7.758 9.121 12.887 16.797 12.887 1.485 0 2.994-.192 4.495-.594l5.252-1.407 34.173 127.528c2.956 11.028 11.574 19.045 21.887 21.792l3.92 14.629c.839 3.127 3.667 5.19 6.757 5.189.6 0 1.21-.078 1.816-.24l1.263-.338 14.374 53.644c.839 3.127 3.667 5.19 6.757 5.19.6 0 1.21-.078 1.816-.24 3.734-1 5.95-4.839 4.95-8.573l-14.374-53.644 1.264-.339c1.794-.48 3.322-1.654 4.251-3.262.928-1.607 1.18-3.518.699-5.312l-3.918-14.622c7.56-7.535 11.013-18.793 8.058-29.822l-34.171-127.529 5.252-1.407c4.475-1.199 8.22-4.078 10.545-8.106 2.326-4.028 2.946-8.711 1.748-13.186-1.199-4.474-4.078-8.219-8.107-10.545-4.028-2.326-8.713-2.945-13.185-1.747l-18.22 4.882-8.61-32.135 6.596-1.768c4.474-1.199 8.219-4.078 10.545-8.106 2.326-4.029 2.946-8.711 1.748-13.186-2.481-9.258-12.028-14.776-21.291-12.293l-46.78 12.535c-4.475 1.199-8.219 4.077-10.545 8.105-2.326 4.029-2.946 8.711-1.748 13.186 2.08 7.758 9.121 12.888 16.798 12.888zm89.95 219.719-2.527.677-1.059-3.953c.425-.095.851-.183 1.275-.297.424-.113.84-.241 1.255-.37zm-25.369-154.574-13.286 3.56c-3.734 1-5.95 4.839-4.95 8.573.838 3.127 3.667 5.19 6.757 5.19.6 0 1.21-.078 1.816-.24l13.286-3.56 1.87 6.979-5.698 1.527c-3.734 1.001-5.949 4.839-4.948 8.574.838 3.127 3.666 5.189 6.757 5.189.6 0 1.209-.078 1.816-.24l5.697-1.527 1.87 6.979-13.286 3.56c-3.734 1-5.95 4.839-4.95 8.573.838 3.127 3.667 5.19 6.757 5.19.6 0 1.21-.078 1.816-.24l13.286-3.56 1.87 6.98-5.697 1.526c-3.734 1-5.95 4.839-4.95 8.573.839 3.127 3.667 5.19 6.758 5.19.599 0 1.209-.078 1.815-.24l5.697-1.526 1.87 6.98-13.285 3.56c-3.734 1-5.95 4.839-4.95 8.573.839 3.127 3.667 5.189 6.757 5.189.6 0 1.21-.078 1.816-.24l13.286-3.56 1.87 6.98-5.698 1.526c-3.734 1-5.95 4.838-4.95 8.573.838 3.127 3.667 5.19 6.757 5.19.6 0 1.21-.078 1.816-.24l5.698-1.527.229.858c2.399 8.954-2.934 18.189-11.886 20.588-8.956 2.396-18.189-2.933-20.588-11.886l-34.169-127.532 32.474-8.701zm10.55-35.731c.303-.081.59-.114.858-.114.762 0 1.364.268 1.703.463.457.264 1.271.881 1.583 2.044.312 1.164-.084 2.104-.349 2.562-.264.457-.881 1.271-2.044 1.583l-70.025 18.763c-1.775.475-3.671-.622-4.146-2.394-.312-1.163.084-2.104.349-2.562.264-.457.881-1.271 2.044-1.583zm-35.367-5.017-6.539 1.752-8.61-32.135 6.539-1.752zm-42.69-43.471c.264-.457.881-1.271 2.044-1.583l46.779-12.535c.28-.075.563-.111.845-.111 1.493 0 2.901 1.013 3.301 2.505.312 1.163-.085 2.104-.349 2.562-.265.458-.881 1.272-2.044 1.583l-46.778 12.535c-1.773.475-3.672-.621-4.146-2.394-.313-1.163.084-2.104.348-2.562z"></path></svg>