<svg id="fi_5593977" height="60px" fill="#fff" viewBox="0 0 64 64" width="60px" xmlns="http://www.w3.org/2000/svg" data-name="Layer 1"><path d="m8 21h2v4h-2z"></path><path d="m4 23.12h2v4h-2z" transform="matrix(.707 -.707 .707 .707 -16.3 10.89)"></path><path d="m54 21h2v4h-2z"></path><path d="m57 24.12h4v2h-4z" transform="matrix(.707 -.707 .707 .707 -.48 49.08)"></path><path d="m60 29h-4l1.71 3.53a3.13 3.13 0 0 1 .29 1.38 3 3 0 0 1 -3 3.09 3.08 3.08 0 0 1 -2.68-4.47l1.68-3.53h-5.61l.61-4.47 2.71 2.71 1.41-1.41-2.83-2.83-1.29 1.26.12-.91a11 11 0 0 0 3.88-9.27 11.26 11.26 0 0 0 -11.37-10.08h-.85a20.6 20.6 0 0 0 -7.67 1.48 3 3 0 0 1 -2.22 0 20.65 20.65 0 0 0 -7.68-1.48h-.84a11.26 11.26 0 0 0 -11.37 10.08 11 11 0 0 0 3.8 9.27l.13.91-1.22-1.26-2.83 2.83 1.41 1.41 2.71-2.71.6 4.47h-5.6l1.71 3.53a3.13 3.13 0 0 1 .29 1.38 3 3 0 0 1 -3 3.09 3.08 3.08 0 0 1 -2.68-4.47l1.68-3.53h-4a2 2 0 0 0 -2 2v27a2 2 0 0 0 2 2h56a2 2 0 0 0 2-2v-27a2 2 0 0 0 -2-2zm-43.64 27.11a3.93 3.93 0 0 1 -6.72 0 4.15 4.15 0 0 1 -.22-4l2.68-5.55a1 1 0 0 1 1.8 0l2.68 5.55a4.15 4.15 0 0 1 -.22 4zm24.42-8.11a3.75 3.75 0 0 1 -1.15-.19 3.47 3.47 0 0 1 -2.13-2.59l-3.35-15.47a2.2 2.2 0 0 0 -4.3 0l-3.35 15.47a3.47 3.47 0 0 1 -2.13 2.59 3.75 3.75 0 0 1 -1.15.19 3.52 3.52 0 0 1 -3.49-3.35l-3-22a1 1 0 0 0 -.33-.65 9 9 0 0 1 -3.4-7.76 9.25 9.25 0 0 1 9.37-8.24h.84a18.65 18.65 0 0 1 6.93 1.33 5 5 0 0 0 3.72 0 18.64 18.64 0 0 1 6.92-1.33h.85a9.25 9.25 0 0 1 9.37 8.24 9 9 0 0 1 -3.41 7.76 1.05 1.05 0 0 0 -.37.65l-3 22a3.49 3.49 0 0 1 -3.44 3.35zm13.58 8.11a3.93 3.93 0 0 1 -6.72 0 4.15 4.15 0 0 1 -.22-4l2.68-5.55a1 1 0 0 1 1.8 0l2.68 5.55a4.15 4.15 0 0 1 -.22 4z"></path></svg>