<svg id="fi_2441139" height="50" viewBox="0 0 128 128" width="50" xmlns="http://www.w3.org/2000/svg"><path d="m60.7 74.056a1.5 1.5 0 0 1 -.99-2.628l1.638-1.436a4.047 4.047 0 0 1 5.363.028l1.589 1.418a1.5 1.5 0 0 1 -2 2.235l-1.583-1.419a1.043 1.043 0 0 0 -1.383-.007l-1.638 1.436a1.493 1.493 0 0 1 -.996.373z"></path><path d="m64 83.571a1.5 1.5 0 0 1 -1.5-1.5v-6.416a1.5 1.5 0 0 1 3 0v6.416a1.5 1.5 0 0 1 -1.5 1.5z"></path><path d="m121.59 5.849c-8.7-9.193-35.574-2.372-50.467 4.087a17.967 17.967 0 0 1 -14.246 0c-14.893-6.459-41.765-13.28-50.467-4.087-6.469 6.837-6.893 19.106-1.079 29.336-.181 4.823.479 10.118 1.1 11.6 1.255 3.022 8.225 4.494 12.515 4.494.42 0 .816-.014 1.177-.042a8.233 8.233 0 0 0 2.434-.514c2.5 2.606 9.271 3.708 13.8 3.708.616 0 1.19-.021 1.707-.06a10.64 10.64 0 0 0 3.516-.771 5.7 5.7 0 0 0 3.614 2.236 57.642 57.642 0 0 0 10.423.907c1.55 0 3.076-.059 4.518-.178a6.673 6.673 0 0 0 3.865-1.533 6.676 6.676 0 0 0 3.864 1.537c1.443.119 2.968.177 4.519.177a57.645 57.645 0 0 0 10.423-.906 5.7 5.7 0 0 0 3.614-2.24 10.64 10.64 0 0 0 3.518.771c.517.039 1.091.06 1.707.06 4.531 0 11.3-1.1 13.8-3.708a8.233 8.233 0 0 0 2.434.514c.361.028.756.042 1.177.042 4.29 0 11.26-1.472 12.515-4.494.617-1.486 1.277-6.781 1.1-11.6 5.812-10.23 5.388-22.499-1.081-29.336zm-107.9 41.8c-3.064-.721-4.352-1.668-4.495-2.013-.871-2.1-1.557-13.279.2-16.292 1.186-2.027 3.559-1.818 4.525-1.634a9.662 9.662 0 0 1 7.187 7 4.459 4.459 0 0 1 .083 1.55 48.439 48.439 0 0 0 .157 11.721c-.98.369-3.967.538-7.654-.33zm17.688 3.376c-4.643-.753-6.6-2.052-6.819-2.562-1.009-2.344-.924-15.032 1.2-19.064.8-1.513 3.241-2.125 6.083-1.522 3.852.817 7.875 3.771 8.455 8.566a4.694 4.694 0 0 1 .009.918 93.142 93.142 0 0 0 .053 12.773c.018.242.063.469.1.7-.943.513-4.374.956-9.078.193zm30.6 1.785a3.134 3.134 0 0 1 -2.1.767 56.262 56.262 0 0 1 -14.131-.685 2.947 2.947 0 0 1 -2.406-2.979c-.171-2.3-.642-10.308.461-16.7a6.35 6.35 0 0 1 6.47-5.545 11.228 11.228 0 0 1 10.972 8.36c1.679 7.148 1.483 15.16.741 16.784zm22.664-2.9a2.946 2.946 0 0 1 -2.406 2.978 56.175 56.175 0 0 1 -14.132.685 3.133 3.133 0 0 1 -2.1-.768c-.741-1.623-.937-9.635.732-16.778a11.237 11.237 0 0 1 10.7-8.364h.267a6.35 6.35 0 0 1 6.47 5.545c1.118 6.399.647 14.405.476 16.708zm18.788-1.452c-.219.511-2.175 1.81-6.818 2.563-4.7.764-8.134.319-9.077-.192a111.79 111.79 0 0 0 .151-13.485 4.726 4.726 0 0 1 .01-.9c.577-4.8 4.6-7.755 8.456-8.573 2.846-.6 5.289.009 6.083 1.522 2.127 4.04 2.212 16.728 1.202 19.071zm15.37-2.82c-.143.345-1.431 1.292-4.5 2.013-3.69.87-6.675.7-7.661.336a48.439 48.439 0 0 0 .157-11.721 4.459 4.459 0 0 1 .083-1.55 9.662 9.662 0 0 1 7.187-7c.964-.183 3.339-.394 4.525 1.633 1.768 3.01 1.082 14.192.209 16.289zm2.385-17.807c-1.491-2.55-4.357-3.7-7.675-3.066a12.533 12.533 0 0 0 -7.806 5.318 11.636 11.636 0 0 0 -.804-2.083c-1.45-2.757-5.127-3.96-9.362-3.059a14.321 14.321 0 0 0 -8.886 5.894 9.249 9.249 0 0 0 -8.843-6.165 14.2 14.2 0 0 0 -13.809 10.065 14.163 14.163 0 0 0 -13.807-10.061 9.249 9.249 0 0 0 -8.843 6.165 14.321 14.321 0 0 0 -8.886-5.894c-4.236-.9-7.912.3-9.362 3.059a11.636 11.636 0 0 0 -.808 2.079 12.533 12.533 0 0 0 -7.806-5.318c-3.314-.631-6.184.516-7.676 3.067a8.08 8.08 0 0 0 -.748 1.859c-3.025-8.046-2.164-16.819 2.526-21.779 6.483-6.854 29.494-2.856 47.094 4.776a20.975 20.975 0 0 0 16.632 0c17.6-7.632 40.612-11.629 47.094-4.776 4.694 4.96 5.551 13.733 2.526 21.779a8.062 8.062 0 0 0 -.749-1.86z"></path><path d="m122.477 95.2a8.112 8.112 0 0 0 -7.225-3.972 13.019 13.019 0 0 0 -9.088 4.089c-1.387-2.521-4.294-3.966-8-3.966a15.788 15.788 0 0 0 -9.215 3.07 10.263 10.263 0 0 0 -1.924 1.879 10.954 10.954 0 0 0 -9.579-5.012 16.11 16.11 0 0 0 -13.446 7.745 16.113 16.113 0 0 0 -13.447-7.742 10.949 10.949 0 0 0 -9.575 5.009 10.342 10.342 0 0 0 -1.927-1.884 15.793 15.793 0 0 0 -9.217-3.071c-3.7 0-6.608 1.444-8 3.967a13.011 13.011 0 0 0 -9.087-4.09 8.115 8.115 0 0 0 -7.227 3.978c-2.807 4.78-1.606 17.572-.481 20.284 1.848 4.43 10.821 5.426 13.819 5.426a13.543 13.543 0 0 0 3.318-.359c4.376 3.461 13.98 3.508 14.094 3.508a17.345 17.345 0 0 0 4.859-.555 7.339 7.339 0 0 0 3.777 1.935 59.383 59.383 0 0 0 10.675.931c1.626 0 3.2-.063 4.678-.186a9.171 9.171 0 0 0 3.741-1.135 9.179 9.179 0 0 0 3.74 1.136c1.481.123 3.055.186 4.681.186a59.352 59.352 0 0 0 10.659-.928 7.358 7.358 0 0 0 3.8-1.947q.454.135.96.239a20.258 20.258 0 0 0 3.877.331c3.059 0 10.426-.69 14.081-3.521a13.473 13.473 0 0 0 3.345.366c3 0 11.971-1 13.817-5.421 1.126-2.717 2.327-15.509-.483-20.29zm-2.287 19.139c-1.31 3.14-14.49 5-15.16 2.21a6.025 6.025 0 0 1 -.21.64c-1.25 2.88-11.53 4.57-16.38 3.61-1.37-.28-2.31-.76-2.49-1.48v-.05a4.227 4.227 0 0 1 -3.43 3.23 57.84 57.84 0 0 1 -14.53.7c-1.07-.09-2.83-.52-3.34-1.64-.35-.76-.95-.76-1.3 0-.51 1.12-2.27 1.55-3.34 1.64a57.84 57.84 0 0 1 -14.53-.7 4.227 4.227 0 0 1 -3.43-3.23v.05c-.85 3.29-17.27 1.56-18.87-2.13a6.025 6.025 0 0 1 -.21-.64c-.67 2.79-13.85.93-15.16-2.21-.95-2.29-1.82-14.01.3-17.62 2.86-4.89 11.6-2.19 14.13 4.69a.449.449 0 0 0 .87-.07 16.246 16.246 0 0 1 1.32-4.51c1.73-3.29 8.36-3.32 12.83 0 2.07 1.54 3.12 4.27 4.01 6.88a.41.41 0 0 0 .8-.1c.07-.98.16-1.93.26-2.52 1.86-10.75 17.9-7.92 20.38 2.73.21.88.39 1.79.55 2.7a.75.75 0 0 0 1.48 0c.16-.91.34-1.82.55-2.7 2.48-10.65 18.52-13.48 20.38-2.73.05.28.09.65.14 1.06v.11c.05.42.09.88.12 1.35a.41.41 0 0 0 .8.1c.23-.66.46-1.33.72-1.98a10.923 10.923 0 0 1 3.29-4.9c4.47-3.32 11.1-3.29 12.83 0a16.246 16.246 0 0 1 1.32 4.51.449.449 0 0 0 .87.07c2.53-6.88 11.27-9.58 14.13-4.69 2.12 3.606 1.25 15.326.3 17.616z"></path></svg>