<svg height="50" viewBox="0 -21 512.00746 512" width="50" xmlns="http://www.w3.org/2000/svg" id="fi_1471634"><path d="m231.859375 353.625c-.632813.9375-16.035156 22.886719-54.332031 30.550781-4.289063.871094-7.226563 4.84375-6.792969 9.203125.429687 4.355469 4.089844 7.679688 8.464844 7.691406.574219.003907 1.144531-.054687 1.707031-.171874 45.609375-9.113282 64.382812-36.597657 65.160156-37.757813 2.628906-3.914063 1.585938-9.21875-2.328125-11.84375-3.914062-2.628906-9.21875-1.585937-11.84375 2.328125zm0 0"></path><path d="m231.695312 225.582031c1.570313 2.480469 4.304688 3.976563 7.238282 3.96875 1.597656.003907 3.164062-.449219 4.515625-1.304687 3.988281-2.5 5.203125-7.757813 2.710937-11.75-1.046875-1.707032-26.195312-41.371094-59.390625-47.019532-13.796875-2.339843-27.917969 1.597657-38.511719 10.742188-2.382812 1.90625-3.566406 4.9375-3.109374 7.953125.460937 3.015625 2.492187 5.558594 5.335937 6.667969 2.839844 1.113281 6.058594.621094 8.441406-1.28125 6.792969-6.054688 15.957031-8.722656 24.941407-7.261719 25.652343 4.367187 47.617187 38.9375 47.828124 39.285156zm0 0"></path><path d="m426.667969 290.648438c-9.6875-6.371094-21.046875-9.734376-32.640625-9.667969-14.082032-13.890625-29.4375-26.429688-45.867188-37.445313.773438-7.554687 1.25-15.191406 1.433594-22.910156 7.433594-.660156 14.761719-2.207031 21.828125-4.617188.769531 20.660157 10.324219 34.621094 27.578125 38.914063 4.148438 1.070313 8.414062 1.625 12.699219 1.652344 19.507812-.617188 36.109375-14.398438 40.3125-33.457031 1.050781-4.535157-1.726563-9.078126-6.246094-10.207032-4.515625-1.128906-9.101563 1.570313-10.308594 6.066406-1.40625 7.042969-5.714843 13.164063-11.875 16.855469-6.15625 3.691407-13.585937 4.613281-20.457031 2.535157-11.199219-2.785157-16.019531-13.007813-14.507812-30.210938 2.335937-1.371094 4.617187-2.816406 6.824218-4.375 5.074219 2.675781 10.519532 4.574219 16.15625 5.628906-1.71875 1.609375-3.660156 2.960938-5.769531 4.003906-4.175781 2.128907-5.855469 7.226563-3.757813 11.417969 2.09375 4.191407 7.179688 5.910157 11.386719 3.847657 12.796875-6.265626 21.140625-19.027344 21.742188-33.261719.003906-3.957031-2.714844-7.398438-6.5625-8.3125-3.851563-.914063-7.824219.941406-9.597657 4.480469-.375.769531-.683593.851562-1.035156.964843-2.832031.292969-5.691406-.148437-8.300781-1.28125 23.390625-24.75 31.515625-60.238281 21.230469-92.699219-10.285156-32.464843-37.371094-56.792968-70.746094-63.558593-33.375-6.761719-67.789062 5.109375-89.902344 31.007812-.203125.195313-.394531.402344-.570312.621094l-.15625.171875c-.167969.167969-.316406.339844-.476563.527344-1.484375 1.785156-2.851562 3.667968-4.199219 5.574218-15.929687-4.394531-44.3125-9.167968-64.808593 4.488282-17.394531 11.578125-21.90625 36.957031-22.1875 58.878906-30.960938 3.25-56.757813 21.820312-64.25 47.164062-6.78125 22.972657 3.203125 46.078126 26.726562 61.710938 16.074219 10.410156 34.453125 16.714844 53.53125 18.355469-25.269531 10.441406-51.75 17.667969-78.824219 21.503906-7.839843 1.285156-13.722656 7.875-14.105468 15.8125-.871094 14.730469.40625 29.507813 3.789062 43.871094-18.335937 3.066406-37.054687 3.085937-55.398437.058593-2.261719-11.621093-11.957031-20.332031-23.753907-21.339843-14.363281 0-25.601562 14.992187-25.601562 34.132812s11.238281 34.132813 25.601562 34.132813c13.097657 0 23.5-12.527344 25.238282-29.253906 7.570312 1.207031 15.222656 1.800781 22.886718 1.777343 12.03125-.097656 24.039063-1.097656 35.917969-2.996093 4.058594 11.347656 9.503907 22.144531 16.214844 32.152343-16.59375 9.859375-34.476563 17.363281-53.136719 22.289063-3.554687-8.898438-11.953125-14.921875-21.523437-15.433594-14.359375 0-25.597657 14.992188-25.597657 34.132812 0 19.140626 11.238282 34.132813 25.597657 34.132813 14.363281 0 25.601562-14.992187 25.601562-34.132813 0-.742187-.128906-1.433593-.164062-2.160156 20.925781-5.472656 40.960937-13.90625 59.496093-25.054687 7 9.410156 15.496094 17.609375 25.148438 24.269531 7.128906 4.5625 15.425781 6.960938 23.890625 6.902344 6.8125-.085938 13.5625-1.335938 19.953125-3.695313 13.664062-5.476562 26.660156-12.492187 38.742188-20.90625 17.277343-11.109375 33.035156-24.425781 46.871093-39.609375 8.492188-9.441406 16.199219-19.5625 23.039063-30.261718.394531.316406.726562.648437 1.121094.964843 10.011718 7.871094 20.949218 14.484375 32.570312 19.695313l.085938.214844c2.429687 5.777343 5.355468 11.332031 8.746093 16.605468 1.605469 2.644532 3.21875 5.296875 4.683594 8.0625 4.414063 8.164063 7.21875 17.101563 8.261719 26.324219.402344 3.789063.484375 7.628906.570312 11.488281-.171875 8.222656.824219 16.429688 2.960938 24.371094 1.894531 7.058594 6.746094 12.957031 13.3125 16.171875 5.34375 2.316406 11.441406 2.121094 16.625-.53125 8.855468-4.875 15.058594-13.464844 16.902344-23.40625 1.253906-5.960937 1.824218-12.042969 1.707031-18.132813.050781-2.816406.09375-5.640624.324219-8.449218.855468-9.726563 3.414062-11.722656 5.042968-12.210938 1.640625.488282 4.226563 2.484375 5.042969 12.21875.230469 2.800782.273437 5.625.324219 8.441406-.117188 6.089844.457031 12.171876 1.707031 18.132813 1.847656 9.945313 8.054687 18.535156 16.914063 23.414063 2.808593 1.371093 5.886718 2.097656 9.011718 2.125 2.613282-.003907 5.195313-.550782 7.585938-1.613282 6.5625-3.210937 11.417968-9.101562 13.3125-16.160156 2.136718-7.945312 3.132812-16.152344 2.960937-24.378906.085938-3.859375.167969-7.679688.570313-11.488282 1.039062-9.21875 3.84375-18.152343 8.253906-26.316406 1.464844-2.765625 3.078125-5.417968 4.683594-8.0625 3.394531-5.273437 6.320312-10.832031 8.746094-16.613281 8.464843-21.582031 10.597656-51.261719-8.789063-69.820313-19.808594-17.121093-48.628906-18.855468-70.347656-4.234374zm-401.066407 83.96875c-3.484374 0-8.535156-6.648438-8.535156-17.066407 0-10.242187 5.121094-17.066406 8.535156-17.066406 3.410157 0 8.53125 6.824219 8.53125 17.066406 0 10.445313-5.050781 17.066407-8.53125 17.066407zm25.597657 76.800781c-3.480469 0-8.53125-6.648438-8.53125-17.066407 0-10.242187 5.117187-17.066406 8.53125-17.066406 3.414062 0 8.535156 6.824219 8.535156 17.066406 0 10.445313-5.054687 17.066407-8.535156 17.066407zm258.449219-135.109375c-19.96875-23.394532-31.210938-52.992188-31.804688-83.746094-.0625-1.773438-.6875-3.484375-1.78125-4.882812.972656-1.160157 2.011719-2.421876 3.199219-3.890626l.042969-.050781.152343-.195312c3.234375-4.027344 7.375-9.386719 12.707031-16.554688 12.21875 7.597657 26.035157 12.257813 40.363282 13.609375-.195313 11.527344-1.148438 23.03125-2.851563 34.433594-3.542969 21.320312-10.296875 41.980469-20.027343 61.277344zm-45.113282-189.15625c-.007812-12.472656 3.046875-24.753906 8.890625-35.773438 9.871094 29.304688 8.457031 50.824219-4.054687 62.34375-3.179688-8.5-4.816406-17.496094-4.835938-26.570312zm30.914063-17.597656c13.242187 6.84375 27.636719 11.183593 42.453125 12.800781 9.304687 1.253906 18.457031 3.460937 27.308594 6.59375-2.820313 2.144531-5.003907 5.011719-6.324219 8.296875-2.339844 6.964844-1.457031 14.613281 2.414062 20.863281 6.050781 10.371094 16.769531 17.152344 28.730469 18.175781.777344.050782 1.554688.078125 2.324219.078125 2.953125-.039062 5.894531-.417969 8.761719-1.136719-14.527344 18.132813-36.496094 28.699219-59.734376 28.722657h-.175781c-25.804687-.058594-49.851562-13.078125-64-34.652344 11.152344-8.40625 23.644531-25.746094 18.242188-59.714844zm45.882812-59.203126c28.558594.03125 54.746094 15.898438 67.996094 41.199219-25.992187-23.664062-65.878906-24.132812-67.996094-24.132812-4.710937 0-8.53125 3.820312-8.53125 8.53125 0 4.714843 3.820313 8.535156 8.53125 8.535156.539063 0 54.128907.425781 68.875 37.296875 4.574219 11.4375 5.417969 26.34375-5.972656 33.871094-3.886719 2.578125-8.496094 3.839844-13.152344 3.601562-6.261719-.683594-11.835937-4.273437-15.042969-9.695312-1.203124-1.828125-1.652343-4.050782-1.246093-6.203125.90625-1.25 2.289062-2.066407 3.824219-2.253907 1.882812-.152343 3.777343.152344 5.519531.898438-1.03125 3.972656.914062 8.117188 4.628906 9.863281 3.71875 1.746094 8.148437.597657 10.550781-2.730469 2.773438-3.671874 3.4375-8.519531 1.75-12.800781-2.46875-5.535156-7.347656-9.625-13.226562-11.09375-9.464844-13.019531-28.484375-16.484375-47.050782-19.726562-13.058593-1.308594-25.753906-5.074219-37.410156-11.09375-7.632812-4.976563-13.742187-11.960938-17.65625-20.183594 14.464844-15.265625 34.578125-23.902344 55.609375-23.882813zm-131.796875 41.257813c13.414063-8.941406 33.613282-6.375 46.480469-3.34375-12.03125 26.078125-11.332031 56.253906 1.894531 81.746094 0 .085937 0 .171875.0625.25.058594.074219.136719.179687.195313.28125 5.183593 9.863281 12.078125 18.730469 20.359375 26.1875-1.570313 2.101562-3.011719 4.019531-4.367188 5.804687-15.457031-27.375-42.179687-62.292968-79.199218-66.375.367187-22.46875 5.519531-38.527344 14.574218-44.550781zm-79.554687 96.691406c4.957031-16.761719 24.746093-34.988281 56.40625-35.449219h.460937c.285156 0 .570313-.027343.851563-.085937 35.183593 0 61.261719 38.28125 74.941406 64.367187-1.035156 1.222657-1.90625 2.21875-2.613281 2.972657-1.988282 2.148437-4.054688 4.207031-6.28125 6.269531-7.722656 7.121094-16.078125 13.519531-24.96875 19.117188l-.988282.613281c-26.972656 4.292969-54.597656-1.054688-78.019531-15.105469-17.1875-11.484375-24.414062-27.050781-19.789062-42.699219zm148.050781 174.371094c-12.835938 14.058594-27.445312 26.394531-43.457031 36.691406-11.011719 7.671875-22.835938 14.105469-35.261719 19.183594-9.316406 4.25-20.125 3.671875-28.9375-1.542969-9.035156-6.554687-16.953125-14.527344-23.441406-23.613281-20.496094-25.964844-30.9375-58.449219-29.402344-91.496094 41.132812-5.636719 80.796875-19.167969 116.800781-39.839843h.042969c.296875-.128907.582031-.28125.855469-.453126l2.730469-1.707031c8.207031-5.242187 16-11.109375 23.3125-17.542969 2.699218 33.558594 16.722656 65.207032 39.765624 89.753907l-.851562 1.457031c-6.550781 10.3125-13.960938 20.046875-22.15625 29.109375zm47.457031-31.191406c-1.09375-.851563-2.058593-1.78125-3.097656-2.671875 11.066406-20.761719 18.867187-43.109375 23.125-66.25 9.597656 6.855468 18.839844 14.195312 27.691406 21.988281-6.28125 2.265625-12.027343 5.792969-16.890625 10.367187-12.140625 12.664063-17.5 30.363282-14.429687 47.632813-5.734375-3.289063-11.214844-7-16.398438-11.101563zm164.445313 27.015625c-2.085938 4.871094-4.582032 9.554687-7.457032 14.003906-1.769531 2.917969-3.535156 5.847656-5.121093 8.875-5.453125 10.078125-8.914063 21.109375-10.199219 32.496094-.460938 4.265625-.570312 8.59375-.671875 12.917968.167969 6.644532-.570313 13.277344-2.195313 19.722657-.515624 2.292969-1.898437 4.300781-3.863281 5.597656-.28125.117187-.957031.382813-2.425781-.308594-4.144531-2.734375-6.933594-7.097656-7.679688-12.007812-.925781-4.746094-1.339843-9.582031-1.238281-14.417969-.050781-3.203125-.117187-6.394531-.382812-9.574219-1.78125-21.335937-12.441407-26.976562-21.066407-27.929687-.320312-.035156-.644531-.054688-.964843-.054688-.324219.035156-.648438.054688-.972657.054688-8.628906.953125-19.285156 6.585937-21.070312 27.917968-.265625 3.191407-.332031 6.382813-.382812 9.585938.105468 4.835938-.3125 9.671875-1.238282 14.417969-.746094 4.910156-3.535156 9.269531-7.679687 12-1.503907.714843-2.160157.433593-2.433594.316406-1.964844-1.296875-3.351563-3.308594-3.863281-5.609375-1.625-6.4375-2.363282-13.070312-2.195313-19.710938-.101562-4.324218-.210937-8.652343-.671875-12.917968-1.269531-11.394532-4.722656-22.4375-10.164062-32.53125-1.441406-2.695313-3.019532-5.296875-4.589844-7.898438 11.035156 3.316406 22.296875 5.828125 33.695312 7.515625.414063.058594.832032.085938 1.246094.085938 4.464844-.011719 8.164063-3.460938 8.488282-7.914063.324218-4.449218-2.835938-8.398437-7.25-9.058594-15.890626-2.25-31.46875-6.34375-46.414063-12.195312-4.265625-14.984375-4.613281-33.613281 6.9375-44.679688 12.589844-10.507812 30.277344-12.375 44.785156-4.726562-3.777343 3.777344-7.230469 7.863281-10.324219 12.21875-.207031.238281-.367187.511719-.546874.769531-3.355469 4.679688-5.949219 9.863281-7.679688 15.359375-.859375 2.925782-.089844 6.085938 2.019531 8.292969 2.105469 2.203125 5.226563 3.117187 8.191407 2.398437 2.960937-.722656 5.316406-2.96875 6.171874-5.898437 4.585938-10.792969 11.882813-20.21875 21.179688-27.363281.09375-.070313.136719-.179688.222656-.257813.085938-.078125.210938-.101562.296875-.1875 15.082031-13.085937 37.414063-13.339843 52.789063-.597656 13.3125 12.75 10.863281 35.59375 4.71875 51.261719zm0 0"></path><path d="m452.265625 314.882812c-3.046875-.015624-5.875 1.59375-7.414063 4.222657-1.539062 2.632812-1.558593 5.882812-.050781 8.535156 1.507813 2.648437 4.316407 4.292969 7.363281 4.308594 2.339844-.246094 4.667969.566406 6.339844 2.222656 1.675782 1.652344 2.515625 3.96875 2.296875 6.3125 0 4.710937 3.820313 8.53125 8.53125 8.53125 4.714844 0 8.535157-3.820313 8.535157-8.53125.199218-6.851563-2.433594-13.476563-7.277344-18.324219-4.84375-4.84375-11.472656-7.476562-18.324219-7.277344zm0 0"></path><path d="m324.265625 136.535156c0 4.714844-3.820313 8.535156-8.53125 8.535156-4.714844 0-8.535156-3.820312-8.535156-8.535156 0-4.710937 3.820312-8.53125 8.535156-8.53125 4.710937 0 8.53125 3.820313 8.53125 8.53125zm0 0"></path><path d="m339.03125 189.886719c5.042969.050781 10.042969-.988281 14.648438-3.046875 4.21875-2.105469 5.929687-7.234375 3.824218-11.449219-2.105468-4.21875-7.234375-5.929687-11.453125-3.824219-8.742187 3.152344-18.519531.363282-24.285156-6.929687-3.347656-3.234375-8.667969-3.1875-11.960937.105469-3.292969 3.289062-3.339844 8.613281-.105469 11.960937 7.554687 8.230469 18.160156 12.996094 29.332031 13.183594zm0 0"></path><path d="m486.398438 8.535156c0-4.710937-3.820313-8.53124975-8.53125-8.53124975-4.714844 0-8.535157 3.82031275-8.535157 8.53124975v8.535156c0 4.714844 3.820313 8.535157 8.535157 8.535157 4.710937 0 8.53125-3.820313 8.53125-8.535157zm0 0"></path><path d="m477.867188 68.269531c4.710937 0 8.53125-3.820312 8.53125-8.53125v-8.535156c0-4.710937-3.820313-8.53125-8.53125-8.53125-4.714844 0-8.535157 3.820313-8.535157 8.53125v8.535156c0 4.710938 3.820313 8.53125 8.535157 8.53125zm0 0"></path><path d="m460.800781 25.605469h-8.535156c-4.710937 0-8.53125 3.820312-8.53125 8.53125 0 4.714843 3.820313 8.535156 8.53125 8.535156h8.535156c4.710938 0 8.53125-3.820313 8.53125-8.535156 0-4.710938-3.820312-8.53125-8.53125-8.53125zm0 0"></path><path d="m494.933594 42.671875h8.53125c4.714844 0 8.535156-3.820313 8.535156-8.535156 0-4.710938-3.820312-8.53125-8.535156-8.53125h-8.53125c-4.714844 0-8.535156 3.820312-8.535156 8.53125 0 4.714843 3.820312 8.535156 8.535156 8.535156zm0 0"></path><path d="m62.234375 186.703125-6.035156-6.03125c-2.140625-2.21875-5.3125-3.109375-8.296875-2.328125s-5.3125 3.113281-6.09375 6.09375c-.78125 2.984375.109375 6.15625 2.324218 8.300781l6.035157 6.03125c3.347656 3.234375 8.671875 3.1875 11.960937-.101562 3.292969-3.292969 3.339844-8.613281.105469-11.964844zm0 0"></path><path d="m86.367188 210.835938c-3.351563-3.234376-8.671876-3.1875-11.964844.105468-3.289063 3.289063-3.335938 8.613282-.101563 11.960938l6.03125 6.035156c2.144531 2.214844 5.316407 3.105469 8.300781 2.324219 2.980469-.78125 5.3125-3.109375 6.09375-6.09375s-.109374-6.15625-2.328124-8.296875zm0 0"></path><path d="m50.167969 210.835938-6.035157 6.035156c-2.214843 2.140625-3.105468 5.3125-2.324218 8.296875s3.109375 5.3125 6.09375 6.09375 6.15625-.109375 8.296875-2.324219l6.035156-6.035156c3.234375-3.347656 3.1875-8.671875-.105469-11.960938-3.289062-3.292968-8.613281-3.339844-11.960937-.105468zm0 0"></path><path d="m92.398438 180.671875c-3.332032-3.332031-8.734376-3.332031-12.066407 0l-6.03125 6.03125c-2.21875 2.144531-3.109375 5.316406-2.328125 8.300781s3.109375 5.3125 6.09375 6.09375 6.15625-.109375 8.300782-2.328125l6.03125-6.03125c3.332031-3.332031 3.332031-8.734375 0-12.066406zm0 0"></path><path d="m147.625 44.445312c-1.050781-3.117187-3.800781-5.351562-7.0625-5.742187l-32.890625-3.953125-14.660156-29.96875c-1.589844-2.71875-4.503907-4.390625-7.652344-4.390625-3.152344 0-6.066406 1.671875-7.65625 4.390625l-14.746094 29.96875-32.886719 3.953125c-3.261718.390625-6.011718 2.621094-7.066406 5.734375-1.054687 3.113281-.226562 6.554688 2.125 8.847656l23.894532 23.3125-5.648438 32.898438c-.546875 3.179687.746094 6.398437 3.34375 8.316406 2.601562 1.914062 6.058594 2.199219 8.9375.734375l29.675781-15.101563 29.65625 15.101563c1.199219.609375 2.527344.925781 3.871094.921875 1.824219-.003906 3.597656-.601562 5.054687-1.703125 2.597657-1.914063 3.894532-5.132813 3.351563-8.3125l-5.648437-32.898437 23.894531-23.3125c2.328125-2.285157 3.152343-5.699219 2.113281-8.796876zm-41.171875 23.039063c-2.007813 1.960937-2.925781 4.785156-2.449219 7.554687l3.523438 20.554688-18.355469-9.386719c-2.433594-1.230469-5.308594-1.230469-7.746094 0l-18.277343 9.371094 3.480468-20.480469c.476563-2.765625-.441406-5.589844-2.449218-7.550781l-14.355469-14.03125 19.765625-2.371094c2.871094-.34375 5.375-2.121093 6.648437-4.71875l9.09375-18.527343 9.097657 18.527343c1.273437 2.597657 3.773437 4.375 6.648437 4.71875l19.761719 2.371094zm0 0"></path></svg>