<svg xmlns="http://www.w3.org/2000/svg" id="fi_5594343" fill="#fff" data-name="Layer 1" viewBox="0 0 64 64" width="50" height="50"><path d="M25.29,41.13a7.44,7.44,0,0,0-.23-1.74l-.51-2.16a11.12,11.12,0,0,1,.15-5.61c.78-2.67,2-6.24,3-8.84l3.78-1.89-.9-1.78L28.68,20l.22-.6,2-3.21a1,1,0,0,0,.15-.52V10H29v5.43l-.81,1.34-1.26-3.14A1,1,0,0,0,26,13H21v2h4.32l1.61,4c-.2.52-.58,1.55-1.05,2.85l-2-3.37-1.72,1L25,24.29c-.08.24-.17.47-.25.71H20v2h4.07c-.47,1.42-.93,2.83-1.29,4.06a13,13,0,0,0-.17,6.63l.5,2.16a5.27,5.27,0,0,1,.18,1.29,13.71,13.71,0,0,1-.51,3.57,25.59,25.59,0,0,0-.6,3.11,3.48,3.48,0,0,0,.92.17l.16,0a4.11,4.11,0,0,0,.94-.16,26,26,0,0,1,.52-2.67A15.48,15.48,0,0,0,25.29,41.13Z"></path><path d="M57.84,23.45l-7.52-1.28A11.11,11.11,0,0,0,53,14.08,11.27,11.27,0,0,0,41.63,4h-.84a20.56,20.56,0,0,0-7.67,1.48,3,3,0,0,1-2.24,0A20.56,20.56,0,0,0,23.21,4h-.84A11.27,11.27,0,0,0,11,14.08a11.09,11.09,0,0,0,2.65,8.09L6.16,23.45A5,5,0,0,0,2,28.38V57a3,3,0,0,0,3,3H59a3,3,0,0,0,3-3V28.38A5,5,0,0,0,57.84,23.45ZM45,58A15,15,0,0,1,34.67,32.15l-.52-2.4a2.2,2.2,0,0,0-4.3,0L26.5,45.22a3.45,3.45,0,0,1-2.12,2.58l-.18.05A22.35,22.35,0,0,0,24,51v7H22V51a24.56,24.56,0,0,1,.18-3.2,3.55,3.55,0,0,1-2.45-3.16l-3-22A1,1,0,0,0,16.4,22,9,9,0,0,1,13,14.24,9.25,9.25,0,0,1,22.37,6h.84a18.54,18.54,0,0,1,6.93,1.34,5.08,5.08,0,0,0,3.72,0A18.54,18.54,0,0,1,40.79,6h.84A9.25,9.25,0,0,1,51,14.24,9,9,0,0,1,47.6,22a1,1,0,0,0-.37.65l-.73,5.39A15,15,0,0,1,45,58Z"></path><path d="M45,30a13,13,0,0,0-4.33.76c-.35-1.17-.74-2.46-1.14-3.76H44V25H39v.28c-.09-.28-.17-.56-.26-.83l.12.06,3-5-1.72-1L38,22.05c-.43-1.38-.77-2.48-.94-3l1.62-4H43V13H38a1,1,0,0,0-.93.63l-1.26,3.14L35,15.43V10H33v5.71a1,1,0,0,0,.15.52l1.93,3.19c0,.11.11.32.19.6l-1.82-.91-.9,1.78,3.55,1.78c.8,2.58,1.9,6.15,2.73,8.89A13,13,0,1,0,45,30Zm0,24A11,11,0,0,1,34,43a10.88,10.88,0,0,1,2.33-6.74l3.21,12.39A5.5,5.5,0,0,0,43,52.7a5.79,5.79,0,0,0,1,.23c0-.3,0-.59,0-.86a21.22,21.22,0,0,0-.65-3.88.13.13,0,0,1,0-.06,15.56,15.56,0,0,1-.56-4,8.17,8.17,0,0,1,.22-1.73l.52-2.17a11.12,11.12,0,0,0-.15-5.61c-.18-.61-.8-1.48-1.14-2.23l.41-.11c.32-.07.65-.13,1-.17h0c.27,0,.55-.05.83-.06.32.75.7,1.61.82,2a13,13,0,0,1,.17,6.63l-.51,2.16a6.49,6.49,0,0,0-.17,1.29,13.51,13.51,0,0,0,.51,3.55.22.22,0,0,1,0,.08,23.07,23.07,0,0,1,.7,4.15c0,.29,0,.6,0,.94a5.49,5.49,0,0,0,4.27-4.94l1.69-13.44A11,11,0,0,1,45,54Z"></path></svg>