<svg xmlns="http://www.w3.org/2000/svg" id="fi_10367949" fill="#fff" viewBox="0 0 60 60" width="50" height="50"><path d="M39.365,41.731a9.085,9.085,0,0,0,9.27,0A8.9,8.9,0,0,0,53,34.119V19.952A2.98,2.98,0,0,0,50,17H38a2.98,2.98,0,0,0-3,2.952V34.119A8.9,8.9,0,0,0,39.365,41.731ZM37,29V20.956a2,2,0,0,1,2-2h.007l4,.044A1,1,0,0,1,43,21h-.011l-4-.044L39,29a1,1,0,0,1-2,0Z"></path><path d="M22,17H10a2.98,2.98,0,0,0-3,2.952V34.119a8.9,8.9,0,0,0,4.365,7.612,9.085,9.085,0,0,0,9.27,0A8.9,8.9,0,0,0,25,34.119V19.952A2.98,2.98,0,0,0,22,17Zm-7,4h-.011l-4-.044L11,29a1,1,0,0,1-2,0V20.956a2,2,0,0,1,2-2h.007l4,.044A1,1,0,0,1,15,21Z"></path><path d="M5,53H55a3,3,0,0,0,3-3V35a2,2,0,0,0-2-2H55v1.119a10.909,10.909,0,0,1-5.345,9.333,11.085,11.085,0,0,1-11.31,0A10.909,10.909,0,0,1,33,34.119V33H27v1.119a10.909,10.909,0,0,1-5.345,9.333,11.085,11.085,0,0,1-11.31,0A10.909,10.909,0,0,1,5,34.119V33H4a2,2,0,0,0-2,2V50A3,3,0,0,0,5,53Z"></path><path d="M35.168,11.445a1,1,0,0,0,1.664,1.11l2-3a.9.9,0,0,0,.051-.109.832.832,0,0,0,.047-.1.982.982,0,0,0,0-.692.832.832,0,0,0-.047-.1.9.9,0,0,0-.051-.109l-2-3a1,1,0,1,0-1.664,1.11L36.132,8H23.868l.964-1.445a1,1,0,0,0-1.664-1.11l-2,3a.9.9,0,0,0-.051.109.832.832,0,0,0-.047.1.982.982,0,0,0,0,.692.832.832,0,0,0,.047.1.9.9,0,0,0,.051.109l2,3a1,1,0,0,0,1.664-1.11L23.868,10H36.132Z"></path></svg>