<svg id="fi_3740701" height="50" fill="#fff" viewBox="0 0 24 24" width="50" xmlns="http://www.w3.org/2000/svg"><path d="m6.33 22c-.294 0-.582-.081-.832-.234-.631-.358-.946-1.105-.735-1.768l1.157-3.179c.01-.038.02-.089.02-.129 0-.197-.13-.4-.332-.518-.249-.141-.565-.115-.729.065l-2.146 2.563c-.481.536-1.325.627-1.935.255-.677-.389-.979-1.205-.689-1.891l.761-1.773c.069-.161.552-1.631 1.013-3.084.318-1.005.754-1.985 1.295-2.911.439-.766 1.233-1.226 2.122-1.226.409 0 .838.116 1.207.326.413.244.737.578.945.97.604 1.078 1.751 1.754 2.988 1.754h.13c.417 0 .841.116 1.227.335.226.125.43.29.601.487.181.209.158.525-.05.706s-.524.158-.706-.05c-.092-.107-.208-.2-.334-.27-.241-.137-.495-.208-.738-.208h-.13c-1.599 0-3.08-.872-3.866-2.276-.129-.242-.319-.435-.569-.584-.683-.388-1.582-.124-1.961.538-.506.866-.912 1.778-1.208 2.713-.232.732-.923 2.887-1.047 3.176l-.76 1.771c-.091.215.032.497.28.639.357.218.544.089.669-.051l2.148-2.566c.492-.539 1.319-.648 1.979-.274.517.301.834.83.834 1.385 0 .139-.023.283-.071.443l-1.158 3.187c-.061.192.064.452.297.584.131.08.246.095.323.095.152 0 .29-.063.37-.17l1.149-1.54c.134-.182.954-1.09 2.231-2.497.667-.734 1.258-1.54 1.758-2.396.037-.067.073-.146.103-.232.062-.207.253-.36.479-.36.276 0 .5.219.5.495v.01c0 .054-.009.107-.026.158-.049.149-.111.285-.185.421-.542.928-1.175 1.791-1.889 2.576-.608.67-2.032 2.237-2.168 2.421l-1.152 1.543c-.268.358-.705.571-1.17.571z"></path><path d="m19.213 18c-.746 0-1.39-.495-1.532-1.177l-.588-3.326c-.046-.22-.302-.397-.593-.397s-.547.177-.596.412l-.583 3.296c-.145.697-.789 1.192-1.534 1.192-.797 0-1.463-.556-1.551-1.294l-.228-1.914c-.015-.125-.198-1.027-.667-3.183-.227-1.039-.341-2.103-.341-3.163 0-1.349 1.097-2.446 2.446-2.446.453 0 .897.123 1.286.356 1.091.654 2.445.654 3.536 0 .389-.233.834-.356 1.286-.356 1.349 0 2.446 1.097 2.446 2.446 0 1.061-.114 2.125-.34 3.164-.592 2.719-.661 3.123-.667 3.182l-.228 1.915c-.088.737-.755 1.293-1.552 1.293zm-2.713-5.9c.767 0 1.429.508 1.575 1.209l.588 3.325c.042.202.28.366.55.366.286 0 .531-.181.558-.412l.229-1.914c.009-.074.036-.299.683-3.276.21-.969.317-1.962.317-2.952 0-.797-.648-1.446-1.446-1.446-.271 0-.538.074-.771.214-1.408.845-3.157.845-4.565 0-.234-.14-.501-.214-.772-.214-.798 0-1.446.648-1.446 1.446 0 .989.107 1.982.317 2.951.429 1.97.658 3.072.683 3.276l.228 1.915c.028.231.273.412.559.412.27 0 .508-.164.553-.381l.583-3.295c.148-.716.81-1.224 1.577-1.224z"></path><path d="m.5 12c-.198 0-.386-.119-.464-.314-.103-.256.022-.547.279-.65l2.5-1c.254-.103.547.022.65.279.103.256-.022.547-.279.65l-2.5 1c-.061.024-.124.035-.186.035z"></path><path d="m23.5 12c-.075 0-.151-.017-.223-.053l-2-1c-.247-.124-.347-.424-.224-.671.124-.247.423-.346.671-.224l2 1c.247.124.347.424.224.671-.089.176-.265.277-.448.277z"></path><path d="m6.773 5.594c-.073 0-.146-.016-.216-.049l-1.274-.614c-.249-.12-.353-.419-.234-.667.121-.249.42-.354.668-.234l1.274.614c.249.12.354.419.234.667-.087.179-.266.283-.452.283z"></path><path d="m10.549 4.274c-.073 0-.146-.016-.216-.049-.249-.12-.354-.419-.234-.667l.614-1.274c.121-.249.42-.353.667-.234.249.12.354.419.234.667l-.614 1.274c-.086.179-.265.283-.451.283z"></path><path d="m8.332 3.99c-.207 0-.4-.129-.472-.335l-.33-.944c-.091-.26.046-.545.307-.637.263-.089.546.047.637.307l.33.944c.091.261-.046.546-.307.637-.055.019-.11.028-.165.028z"></path></svg>